<svg width="175" height="175" viewBox="0 0 175 175" fill="none" xmlns="http://www.w3.org/2000/svg">
<path d="M175 87.5C175 135.825 135.825 175 87.5 175C39.1751 175 0 135.825 0 87.5C0 39.1751 39.1751 0 87.5 0C135.825 0 175 39.1751 175 87.5ZM14.4376 87.5C14.4376 127.851 47.1488 160.562 87.5 160.562C127.851 160.562 160.562 127.851 160.562 87.5C160.562 47.1488 127.851 14.4376 87.5 14.4376C47.1488 14.4376 14.4376 47.1488 14.4376 87.5Z" fill="white"/>
<path d="M175 87.5C175 135.825 135.825 175 87.5 175C39.1751 175 0 135.825 0 87.5C0 39.1751 39.1751 0 87.5 0C135.825 0 175 39.1751 175 87.5ZM14.4376 87.5C14.4376 127.851 47.1488 160.562 87.5 160.562C127.851 160.562 160.562 127.851 160.562 87.5C160.562 47.1488 127.851 14.4376 87.5 14.4376C47.1488 14.4376 14.4376 47.1488 14.4376 87.5Z" fill="white"/>
<path d="M175 87.5C175 135.825 135.825 175 87.5 175C39.1751 175 0 135.825 0 87.5C0 39.1751 39.1751 0 87.5 0C135.825 0 175 39.1751 175 87.5ZM14.4376 87.5C14.4376 127.851 47.1488 160.562 87.5 160.562C127.851 160.562 160.562 127.851 160.562 87.5C160.562 47.1488 127.851 14.4376 87.5 14.4376C47.1488 14.4376 14.4376 47.1488 14.4376 87.5Z" fill="white"/>
<path d="M138.64 158.5C153.634 147.7 164.824 132.43 170.606 114.88C176.388 97.3293 176.466 78.3987 170.827 60.8014C165.189 43.204 154.124 27.8434 139.219 16.9212C124.314 5.99895 106.334 0.0758087 87.8556 0.00072238L87.7969 14.4382C103.226 14.5009 118.24 19.4467 130.686 28.5668C143.131 37.6869 152.37 50.5129 157.078 65.2067C161.786 79.9004 161.721 95.7074 156.893 110.362C152.065 125.017 142.722 137.767 130.202 146.785L138.64 158.5Z" fill="url(#paint0_linear_72_2)"/>
<defs>
<linearGradient id="paint0_linear_72_2" x1="5.49007e-07" y1="88.8461" x2="175" y2="88.8461" gradientUnits="userSpaceOnUse">
<stop stop-color="#A34EDF"/>
<stop offset="1" stop-color="#EE87FF"/>
</linearGradient>
</defs>
</svg>
