<svg width="10" height="16" viewBox="0 0 10 16" fill="none" xmlns="http://www.w3.org/2000/svg">
<path d="M8.41121 15.7702L0.21028 8.43864C0.132399 8.36902 0.0778816 8.29939 0.046729 8.22976C0.0155763 8.16014 0 8.08355 0 8C0 7.91645 0.0155763 7.83986 0.046729 7.77023C0.0778816 7.70061 0.132399 7.63098 0.21028 7.56136L8.41121 0.229765C8.58255 0.0765884 8.80062 0 9.06542 0C9.33022 0 9.54829 0.0765884 9.71963 0.229765C9.90654 0.396867 10 0.5953 10 0.825065C10 1.05483 9.90654 1.25326 9.71963 1.42037L2.35981 8L9.71963 14.5796C9.90654 14.7467 9.99611 14.9452 9.98832 15.1749C9.98053 15.4047 9.89097 15.5962 9.71963 15.7493C9.53271 15.9164 9.31075 16 9.05374 16C8.79673 16 8.58255 15.9234 8.41121 15.7702Z" fill="white"/>
</svg>
