<svg width="18" height="18" viewBox="0 0 18 18" fill="none" xmlns="http://www.w3.org/2000/svg">
<path d="M9.09824 18C6.57095 18 4.42275 17.1153 2.65365 15.346C0.884551 13.5767 0 11.4282 0 8.90058C0 6.62572 0.669731 4.69631 2.00919 3.11234C3.34866 1.52837 5.10512 0.508893 7.27859 0.0539225C7.96938 -0.0808837 8.44114 0.0370717 8.69387 0.407789C8.9466 0.778506 8.93818 1.28403 8.6686 1.92436C8.51696 2.31193 8.39902 2.70792 8.31478 3.11234C8.23054 3.51676 8.18841 3.9296 8.18841 4.35087C8.18841 5.86744 8.71914 7.15652 9.78061 8.21812C10.8421 9.27972 12.131 9.81052 13.6474 9.81052C14.0686 9.81052 14.4771 9.77261 14.8731 9.69678C15.269 9.62095 15.6523 9.51563 16.023 9.38083C16.7475 9.11121 17.2867 9.12385 17.6405 9.41874C17.9943 9.71363 18.087 10.2149 17.9185 10.9227C17.4636 12.9616 16.4442 14.6509 14.8605 15.9905C13.2767 17.3302 11.3559 18 9.09824 18Z" fill="#8BF8FF"/>
</svg>
