<svg width="22" height="22" viewBox="0 0 22 22" fill="none" xmlns="http://www.w3.org/2000/svg">
<path d="M11 0C4.928 0 0 4.928 0 11C0 17.072 4.928 22 11 22C17.072 22 22 17.072 22 11C22 4.928 17.072 0 11 0ZM12.551 17.699V18.337C12.551 19.14 11.891 19.8 11.088 19.8H11.077C10.274 19.8 9.614 19.14 9.614 18.337V17.677C8.151 17.369 6.853 16.566 6.303 15.213C6.05 14.608 6.523 13.937 7.183 13.937H7.447C7.854 13.937 8.184 14.212 8.338 14.597C8.657 15.422 9.493 15.994 11.099 15.994C13.255 15.994 13.739 14.916 13.739 14.245C13.739 13.332 13.255 12.474 10.802 11.891C8.074 11.231 6.204 10.109 6.204 7.854C6.204 5.962 7.733 4.73 9.625 4.323V3.663C9.625 2.86 10.285 2.2 11.088 2.2H11.099C11.902 2.2 12.562 2.86 12.562 3.663V4.345C14.08 4.719 15.037 5.665 15.455 6.831C15.675 7.436 15.213 8.074 14.564 8.074H14.278C13.871 8.074 13.541 7.788 13.431 7.392C13.178 6.556 12.485 6.017 11.099 6.017C9.449 6.017 8.459 6.765 8.459 7.821C8.459 8.745 9.174 9.35 11.396 9.922C13.618 10.494 15.994 11.451 15.994 14.223C15.972 16.236 14.465 17.336 12.551 17.699Z" fill="white"/>
</svg>
