<svg width="131" height="80" viewBox="0 0 131 80" fill="none" xmlns="http://www.w3.org/2000/svg">
<path d="M33.1781 4.31307C30.5497 4.78665 28.5843 5.47334 25.956 6.79937C20.5335 9.56982 16.3659 14.2109 14.3769 19.6571C13.998 20.7227 11.7485 29.8391 9.35695 39.9264L5 58.2776L5.02368 61.0007C5.02368 63.3213 5.1184 63.9843 5.63933 65.4524C6.49178 67.8203 7.55734 69.5252 9.28591 71.2774C13.5955 75.6107 20.2493 76.9131 25.2219 74.4031C27.7082 73.1481 28.8922 71.68 32.8229 65.1446C36.6826 58.7275 37.6297 57.5436 39.4057 57.0227C40.7317 56.6201 90.2683 56.6201 91.5943 57.0227C93.3703 57.5436 94.3174 58.7275 98.1771 65.1446C102.203 71.8457 103.244 73.1007 105.991 74.4504C107.957 75.445 109.709 75.7765 112.148 75.6107C115.913 75.3502 119.038 73.9295 121.714 71.2774C123.443 69.5252 124.508 67.8203 125.361 65.4524C125.882 63.9843 125.976 63.3213 125.976 61.0007L126 58.2776L121.643 39.9264C119.251 29.8391 117.073 20.9358 116.765 20.1544C115.463 16.6735 113.379 13.4532 110.703 10.8248C107.767 7.88861 104.192 5.87589 99.8583 4.69193L97.5851 4.0526L66.3288 4.00524C40.0213 3.98156 34.7646 4.02892 33.1781 4.31307ZM44.7098 19.8229C45.8464 20.6279 46.1779 21.5514 46.2726 24.2272L46.3673 26.6661H48.309C50.7716 26.6661 51.9319 26.9976 52.8554 27.9921C53.8973 29.0814 54.0867 30.3127 53.4474 31.7334C52.7133 33.4146 51.9319 33.7698 48.901 33.7698H46.3673L46.2963 36.3035C46.1779 39.1923 45.799 40.1632 44.473 40.9446C42.9575 41.8444 40.6133 41.3234 39.6898 39.879C39.453 39.5238 39.311 38.4346 39.2162 36.6113L39.0978 33.8882L36.3748 33.7698C33.4149 33.6514 32.7992 33.391 31.9941 32.0412C31.4732 31.1651 31.4969 29.4602 32.0415 28.5131C32.8229 27.187 33.7937 26.8082 36.6826 26.6898L39.2162 26.6187V24.0851C39.2162 21.9776 39.2873 21.4567 39.6898 20.7937C40.6843 19.1835 43.1233 18.7099 44.7098 19.8229ZM89.8184 19.5624C93.1335 21.0542 91.9732 26.1925 88.3503 26.1925C87.4031 26.1925 86.0297 25.5295 85.4614 24.7955C84.4433 23.4694 84.68 21.362 86.0061 20.107C87.1663 19.0178 88.2793 18.852 89.8184 19.5624ZM82.5489 27.3054C84.0881 28.2052 84.68 30.5732 83.7566 32.0649C82.7147 33.7225 80.4415 34.2908 78.8076 33.2962C77.7658 32.6569 77.008 30.9994 77.2211 29.7681C77.6237 27.3528 80.4415 26.0741 82.5489 27.3054ZM97.8219 27.3528C98.7928 27.8974 99.4084 29.0577 99.4084 30.3364C99.4084 32.5148 97.7746 33.9356 95.5014 33.6988C94.4832 33.6041 94.1753 33.462 93.3939 32.6332C92.5889 31.7571 92.4941 31.5203 92.4941 30.4548C92.4941 29.034 92.9204 28.0868 93.8202 27.4949C95.1935 26.5951 96.4249 26.5714 97.8219 27.3528ZM90.6708 35.4037C91.6417 36.3035 91.6654 36.3745 91.6654 37.8426C91.6654 39.4765 91.2628 40.2816 90.0552 40.9919C89.1791 41.5129 87.4742 41.4892 86.527 40.9446C84.3485 39.6659 84.2775 36.2324 86.4086 34.9538C86.9059 34.6459 87.5926 34.4802 88.4213 34.4802C89.5579 34.4802 89.771 34.5749 90.6708 35.4037Z" fill="url(#paint0_linear_22_139)"/>
<path d="M90.6708 35.4037C91.6417 36.3035 91.6654 36.3745 91.6654 37.8426C91.6654 39.4765 91.2628 40.2816 90.0552 40.9919C89.1791 41.5129 87.4742 41.4892 86.527 40.9446C84.3485 39.6659 84.2775 36.2324 86.4086 34.9538C86.9059 34.6459 87.5926 34.4802 88.4213 34.4802C89.5579 34.4802 89.771 34.5749 90.6708 35.4037Z" fill="white"/>
<path d="M44.7098 19.8229C45.8464 20.6279 46.1779 21.5514 46.2726 24.2272L46.3673 26.6661H48.309C50.7716 26.6661 51.9319 26.9976 52.8554 27.9921C53.8973 29.0814 54.0867 30.3127 53.4474 31.7334C52.7133 33.4146 51.9319 33.7698 48.901 33.7698H46.3673L46.2963 36.3035C46.1779 39.1923 45.799 40.1632 44.473 40.9446C42.9575 41.8444 40.6133 41.3234 39.6898 39.879C39.453 39.5238 39.311 38.4346 39.2162 36.6113L39.0978 33.8882L36.3748 33.7698C33.4149 33.6514 32.7992 33.391 31.9941 32.0412C31.4732 31.1651 31.4969 29.4602 32.0415 28.5131C32.8229 27.187 33.7937 26.8082 36.6826 26.6898L39.2162 26.6187V24.0851C39.2162 21.9776 39.2873 21.4567 39.6898 20.7937C40.6843 19.1835 43.1233 18.7099 44.7098 19.8229Z" fill="white"/>
<path d="M82.5489 27.3054C84.0881 28.2052 84.68 30.5732 83.7566 32.0649C82.7147 33.7225 80.4415 34.2908 78.8076 33.2962C77.7658 32.6569 77.008 30.9994 77.2211 29.7681C77.6237 27.3528 80.4415 26.0741 82.5489 27.3054Z" fill="white"/>
<path d="M89.8184 19.5624C93.1335 21.0542 91.9732 26.1925 88.3503 26.1925C87.4031 26.1925 86.0297 25.5295 85.4614 24.7955C84.4433 23.4694 84.68 21.362 86.0061 20.107C87.1663 19.0178 88.2793 18.852 89.8184 19.5624Z" fill="white"/>
<path d="M97.8219 27.3528C98.7928 27.8974 99.4084 29.0577 99.4084 30.3364C99.4084 32.5148 97.7746 33.9356 95.5014 33.6988C94.4832 33.6041 94.1753 33.462 93.3939 32.6332C92.5889 31.7571 92.4941 31.5203 92.4941 30.4548C92.4941 29.034 92.9204 28.0868 93.8202 27.4949C95.1935 26.5951 96.4249 26.5714 97.8219 27.3528Z" fill="white"/>
<path d="M25.046 5.01833L25.0551 5.01374C27.8315 3.61306 29.9801 2.85709 32.8234 2.34476L32.8255 2.3444C33.8258 2.16525 35.7432 2.08747 40.4646 2.04381C45.2777 1.99929 53.1799 1.9934 66.3306 2.00524H66.3318L97.5882 2.0526L97.8625 2.05302L98.1266 2.1273L100.385 2.76265C100.388 2.76329 100.39 2.76394 100.393 2.76458C105.023 4.03088 108.91 6.20487 112.112 9.40484C114.992 12.2358 117.233 15.6992 118.636 19.4467C118.771 19.8038 118.998 20.6508 119.257 21.6544C119.545 22.7676 119.923 24.2777 120.365 26.0728C121.249 29.6644 122.392 34.4177 123.589 39.4644C123.589 39.4646 123.589 39.4648 123.589 39.465L127.946 57.8157L128.002 58.0521L128 58.295L127.976 61.0007C127.976 61.0036 127.976 61.0065 127.976 61.0094C127.976 62.1686 127.954 63.0343 127.845 63.8214C127.73 64.6504 127.528 65.3263 127.246 66.1212L127.242 66.1298C126.295 68.7629 125.076 70.7178 123.138 72.682L123.13 72.69L123.122 72.6979C120.107 75.6864 116.531 77.3122 112.286 77.6059L112.283 77.6061C109.529 77.7933 107.414 77.41 105.099 76.2404C103.529 75.468 102.346 74.6573 101.031 73.0894C99.8054 71.6277 98.4595 69.4986 96.4632 66.1754C94.515 62.9363 93.3863 61.1648 92.5495 60.1306C91.8756 59.2977 91.5192 59.0987 91.1481 58.9777C91.052 58.9693 90.906 58.9596 90.7034 58.9494C90.2923 58.9286 89.7109 58.9086 88.9747 58.8899C87.5057 58.8526 85.4684 58.8212 83.0462 58.7961C78.2042 58.7459 71.8538 58.7207 65.5 58.7207C59.1462 58.7207 52.7958 58.7459 47.9538 58.7961C45.5316 58.8212 43.4943 58.8526 42.0253 58.8899C41.2891 58.9086 40.7077 58.9286 40.2966 58.9494C40.094 58.9596 39.948 58.9693 39.8519 58.9777C39.4808 59.0987 39.1244 59.2977 38.4505 60.1306C37.6137 61.1648 36.485 62.9363 34.5368 66.1754C30.6519 72.6346 29.203 74.634 26.1231 76.1885C20.2823 79.1368 12.7089 77.5555 7.86783 72.6878L7.86782 72.6878L7.86211 72.682C5.92445 70.7178 4.70547 68.7629 3.75756 66.1298L3.75754 66.1298L3.75448 66.1212C3.47241 65.3263 3.27031 64.6504 3.15517 63.8214C3.04585 63.0343 3.02379 62.1687 3.02368 61.0095L3.00008 58.295L2.99796 58.0521L3.05409 57.8157L7.41089 39.465C7.41094 39.4648 7.41099 39.4646 7.41104 39.4644C8.60786 34.4164 9.76964 29.6092 10.6802 25.9283C11.5709 22.328 12.2599 19.6412 12.4925 18.9871L12.4953 18.979L12.4983 18.971C14.6687 13.0282 19.1958 8.00735 25.046 5.01833ZM91.2211 58.9849C91.2325 58.9867 91.2388 58.9874 91.2391 58.9873C91.2394 58.9873 91.2337 58.9864 91.2211 58.9849ZM39.7609 58.9873C39.7612 58.9874 39.7678 58.9867 39.7796 58.9848C39.7664 58.9864 39.7605 58.9873 39.7609 58.9873Z" stroke="white" stroke-width="4"/>
<defs>
<linearGradient id="paint0_linear_22_139" x1="5" y1="39.2846" x2="126" y2="39.2846" gradientUnits="userSpaceOnUse">
<stop stop-color="#A34EDF"/>
<stop offset="1" stop-color="#EE87FF"/>
</linearGradient>
</defs>
</svg>
