<svg width="97" height="97" viewBox="0 0 97 97" fill="none" xmlns="http://www.w3.org/2000/svg">
<path d="M48.4995 96.9983C41.9684 97.053 35.4929 95.7948 29.4576 93.2987C23.7003 90.9366 18.469 87.4558 14.0672 83.0577C9.65304 78.6542 6.14758 73.4263 3.74992 67.6713C-1.24997 55.4298 -1.24997 41.7166 3.74992 29.4752C6.88669 22.185 11.7567 15.7709 17.9371 10.7906C24.1175 5.81026 31.4213 2.41441 39.2131 0.897986C47.005 -0.618443 55.0495 -0.209648 62.6473 2.08921C70.245 4.38807 77.1661 8.50737 82.8092 14.0888C87.2094 18.514 90.7274 23.7356 93.1756 29.4752C95.6999 35.5261 97 42.017 97 48.5731C97 55.1292 95.6999 61.6204 93.1756 67.6713C90.7316 73.4132 87.2131 78.6356 82.8092 83.0577C78.3986 87.4565 73.1591 90.9372 67.3943 93.2987C61.4083 95.7877 54.9824 97.0459 48.4995 96.9983V96.9983ZM44.7254 59.0716H51.8812C51.8635 57.1247 52.1278 55.1854 52.6656 53.3141C53.7204 50.9032 55.4155 48.8274 57.567 47.3116C59.731 45.616 61.5387 43.5094 62.8854 41.1129C63.954 39.0554 64.5008 36.7671 64.4781 34.4488C64.5594 32.5334 64.2272 30.6227 63.504 28.8471C62.7809 27.0715 61.684 25.4724 60.2875 24.1585C57.2341 21.4667 53.2522 20.0695 49.1858 20.263C45.4706 20.1996 41.8202 21.2398 38.6968 23.252C35.6971 25.223 33.3915 28.085 32.1046 31.435L38.5251 33.8851C39.3037 31.7649 40.6942 29.9234 42.52 28.5932C44.3733 27.3299 46.5754 26.6787 48.8178 26.7311C51.2474 26.6188 53.6325 27.4133 55.5088 28.9605C56.3158 29.6808 56.9537 30.5705 57.3773 31.5657C57.8009 32.561 57.9999 33.6375 57.9595 34.7183C57.9572 36.5202 57.4102 38.2793 56.3907 39.7653C55.094 41.6079 53.5431 43.2576 51.7837 44.6653C49.6507 46.4329 47.8279 48.5446 46.3917 50.9131C45.1271 53.4397 44.5363 56.2498 44.6763 59.0716H44.7254ZM48.965 76.7609C49.7199 76.7563 50.4625 76.5665 51.1267 76.2079C51.791 75.8493 52.3567 75.333 52.7745 74.7044C53.1923 74.0758 53.4496 73.354 53.523 72.6028C53.5964 71.8517 53.4839 71.0941 53.1957 70.3965C52.9075 69.6989 52.4521 69.083 51.8698 68.6026C51.2876 68.1222 50.5963 67.792 49.8565 67.6414C49.1168 67.4908 48.3516 67.5244 47.6278 67.7389C46.904 67.9534 46.2441 68.3425 45.706 68.8718C44.8439 69.7472 44.3604 70.9263 44.3604 72.1548C44.3604 73.3833 44.8439 74.5627 45.706 75.4381C46.1255 75.862 46.6252 76.1975 47.1767 76.4247C47.7281 76.652 48.3196 76.7662 48.916 76.7609H48.965Z" fill="white"/>
</svg>
