<svg width="18" height="16" viewBox="0 0 18 16" fill="none" xmlns="http://www.w3.org/2000/svg">
<path d="M13.2703 7.60121C13.0058 7.60121 12.7829 7.49974 12.6016 7.29678C12.4203 7.09383 12.3297 6.84429 12.3297 6.54818V1.05303C12.3297 0.756921 12.4203 0.507387 12.6016 0.304432C12.7829 0.101477 13.0058 0 13.2703 0H17.046C17.3105 0 17.5356 0.101477 17.7214 0.304432C17.9071 0.507387 18 0.756921 18 1.05303V6.54818C18 6.84429 17.9071 7.09383 17.7214 7.29678C17.5356 7.49974 17.3105 7.60121 17.046 7.60121H13.2703ZM7.18595 7.60121C6.92147 7.60121 6.6986 7.49974 6.51731 7.29678C6.33602 7.09383 6.24537 6.84429 6.24537 6.54818V1.05303C6.24537 0.756921 6.33602 0.507387 6.51731 0.304432C6.6986 0.101477 6.92147 0 7.18595 0H10.8006C11.0651 0 11.288 0.101477 11.4692 0.304432C11.6505 0.507387 11.7412 0.756921 11.7412 1.05303V6.54818C11.7412 6.84429 11.6505 7.09383 11.4692 7.29678C11.288 7.49974 11.0651 7.60121 10.8006 7.60121H7.18595ZM0.940581 7.60121C0.676091 7.60121 0.453205 7.49974 0.271923 7.29678C0.090641 7.09383 0 6.84429 0 6.54818V1.05303C0 0.756921 0.090641 0.507387 0.271923 0.304432C0.453205 0.101477 0.676091 0 0.940581 0H4.7163C4.98079 0 5.20367 0.101477 5.38495 0.304432C5.56624 0.507387 5.65688 0.756921 5.65688 1.05303V6.54818C5.65688 6.84429 5.56624 7.09383 5.38495 7.29678C5.20367 7.49974 4.98079 7.60121 4.7163 7.60121H0.940581ZM0.940581 16C0.676091 16 0.453205 15.8985 0.271923 15.6956C0.090641 15.4926 0 15.2381 0 14.9319V9.45182C0 9.15571 0.090641 8.90617 0.271923 8.70322C0.453205 8.50026 0.676091 8.39878 0.940581 8.39878H4.7163C4.98079 8.39878 5.20367 8.50026 5.38495 8.70322C5.56624 8.90617 5.65688 9.15571 5.65688 9.45182V14.9319C5.65688 15.2381 5.56624 15.4926 5.38495 15.6956C5.20367 15.8985 4.98079 16 4.7163 16H0.940581ZM7.18595 16C6.92147 16 6.6986 15.8985 6.51731 15.6956C6.33602 15.4926 6.24537 15.2381 6.24537 14.9319V9.45182C6.24537 9.15571 6.33602 8.90617 6.51731 8.70322C6.6986 8.50026 6.92147 8.39878 7.18595 8.39878H10.8006C11.0651 8.39878 11.288 8.50026 11.4692 8.70322C11.6505 8.90617 11.7412 9.15571 11.7412 9.45182V14.9319C11.7412 15.2381 11.6505 15.4926 11.4692 15.6956C11.288 15.8985 11.0651 16 10.8006 16H7.18595ZM13.2703 16C13.0058 16 12.7829 15.8985 12.6016 15.6956C12.4203 15.4926 12.3297 15.2381 12.3297 14.9319V9.45182C12.3297 9.15571 12.4203 8.90617 12.6016 8.70322C12.7829 8.50026 13.0058 8.39878 13.2703 8.39878H17.046C17.3105 8.39878 17.5356 8.50026 17.7214 8.70322C17.9071 8.90617 18 9.15571 18 9.45182V14.9319C18 15.2381 17.9071 15.4926 17.7214 15.6956C17.5356 15.8985 17.3105 16 17.046 16H13.2703Z" fill="white"/>
</svg>
