<svg width="16" height="16" viewBox="0 0 16 16" fill="none" xmlns="http://www.w3.org/2000/svg">
<path d="M1.69263 7.36503C1.22756 7.36503 0.829187 7.19919 0.497503 6.86751C0.165834 6.53584 0 6.13344 0 5.66031V1.7047C0 1.23963 0.165834 0.83925 0.497503 0.50355C0.829187 0.16785 1.22756 0 1.69263 0H5.66033C6.1254 0 6.52377 0.16785 6.85544 0.50355C7.18712 0.83925 7.35296 1.23963 7.35296 1.7047V5.66031C7.35296 6.13344 7.18712 6.53584 6.85544 6.86751C6.52377 7.19919 6.1254 7.36503 5.66033 7.36503H1.69263ZM1.69263 16C1.22756 16 0.829187 15.8342 0.497503 15.5025C0.165834 15.1708 0 14.7724 0 14.3074V10.3397C0 9.8746 0.165834 9.47623 0.497503 9.14456C0.829187 8.81288 1.22756 8.64704 1.69263 8.64704H5.66033C6.1254 8.64704 6.52377 8.81288 6.85544 9.14456C7.18712 9.47623 7.35296 9.8746 7.35296 10.3397V14.3074C7.35296 14.7724 7.18712 15.1708 6.85544 15.5025C6.52377 15.8342 6.1254 16 5.66033 16H1.69263ZM10.3397 7.36503C9.86656 7.36503 9.46416 7.19919 9.13249 6.86751C8.80081 6.53584 8.63497 6.13344 8.63497 5.66031V1.7047C8.63497 1.23963 8.80081 0.83925 9.13249 0.50355C9.46416 0.16785 9.86656 0 10.3397 0H14.2953C14.7604 0 15.1608 0.16785 15.4965 0.50355C15.8322 0.83925 16 1.23963 16 1.7047V5.66031C16 6.13344 15.8322 6.53584 15.4965 6.86751C15.1608 7.19919 14.7604 7.36503 14.2953 7.36503H10.3397ZM10.3397 16C9.86656 16 9.46416 15.8342 9.13249 15.5025C8.80081 15.1708 8.63497 14.7724 8.63497 14.3074V10.3397C8.63497 9.8746 8.80081 9.47623 9.13249 9.14456C9.46416 8.81288 9.86656 8.64704 10.3397 8.64704H14.2953C14.7604 8.64704 15.1608 8.81288 15.4965 9.14456C15.8322 9.47623 16 9.8746 16 10.3397V14.3074C16 14.7724 15.8322 15.1708 15.4965 15.5025C15.1608 15.8342 14.7604 16 14.2953 16H10.3397Z" fill="white"/>
</svg>
