<svg width="24" height="23" viewBox="0 0 24 23" fill="none" xmlns="http://www.w3.org/2000/svg">
<path d="M12 16.5328C10.547 16.5328 9.30853 16.0421 8.28446 15.0607C7.26039 14.0793 6.74836 12.8924 6.74836 11.5C6.74836 10.1076 7.26039 8.92068 8.28446 7.93928C9.30853 6.95788 10.547 6.46718 12 6.46718C13.453 6.46718 14.6915 6.95788 15.7155 7.93928C16.7396 8.92068 17.2516 10.1076 17.2516 11.5C17.2516 12.8924 16.7396 14.0793 15.7155 15.0607C14.6915 16.0421 13.453 16.5328 12 16.5328ZM1.23414 12.6827C0.888403 12.6827 0.59628 12.568 0.357768 12.3386C0.119256 12.1092 0 11.8282 0 11.4956C0 11.163 0.119256 10.8835 0.357768 10.657C0.59628 10.4305 0.888403 10.3173 1.23414 10.3173H3.85996C4.20569 10.3173 4.49781 10.432 4.73632 10.6614C4.97484 10.8908 5.09409 11.1718 5.09409 11.5044C5.09409 11.837 4.97484 12.1165 4.73632 12.343C4.49781 12.5695 4.20569 12.6827 3.85996 12.6827H1.23414ZM20.14 12.6827C19.7943 12.6827 19.5022 12.568 19.2637 12.3386C19.0252 12.1092 18.9059 11.8282 18.9059 11.4956C18.9059 11.163 19.0252 10.8835 19.2637 10.657C19.5022 10.4305 19.7943 10.3173 20.14 10.3173H22.7659C23.1116 10.3173 23.4037 10.432 23.6422 10.6614C23.8807 10.8908 24 11.1718 24 11.5044C24 11.837 23.8807 12.1165 23.6422 12.343C23.4037 12.5695 23.1116 12.6827 22.7659 12.6827H20.14ZM11.9954 4.88184C11.6484 4.88184 11.3567 4.76755 11.1203 4.53898C10.884 4.3104 10.7659 4.03045 10.7659 3.69912V1.18271C10.7659 0.851386 10.8856 0.571435 11.1249 0.342861C11.3644 0.114287 11.6576 0 12.0046 0C12.3516 0 12.6433 0.114287 12.8797 0.342861C13.116 0.571435 13.2341 0.851386 13.2341 1.18271V3.69912C13.2341 4.03045 13.1144 4.3104 12.8751 4.53898C12.6357 4.76755 12.3424 4.88184 11.9954 4.88184ZM11.9954 23C11.6484 23 11.3567 22.8858 11.1203 22.6573C10.884 22.4286 10.7659 22.1486 10.7659 21.8173V19.3009C10.7659 18.9695 10.8856 18.6896 11.1249 18.461C11.3644 18.2324 11.6576 18.1182 12.0046 18.1182C12.3516 18.1182 12.6433 18.2324 12.8797 18.461C13.116 18.6896 13.2341 18.9695 13.2341 19.3009V21.8173C13.2341 22.1486 13.1144 22.4286 12.8751 22.6573C12.6357 22.8858 12.3424 23 11.9954 23ZM5.38293 6.84464L3.88621 5.43545C3.64114 5.20058 3.52185 4.91872 3.52834 4.58986C3.53482 4.26098 3.65321 3.97159 3.88351 3.7217C4.12677 3.48856 4.41561 3.37199 4.75003 3.37199C5.08444 3.37199 5.38293 3.48942 5.64551 3.72429L7.14223 5.15864C7.3698 5.39351 7.48359 5.67031 7.48359 5.98906C7.48359 6.3078 7.3698 6.58042 7.14223 6.80689C6.89716 7.03337 6.60394 7.155 6.26258 7.17177C5.92123 7.18855 5.62801 7.0795 5.38293 6.84464ZM18.3545 19.2757L16.8578 17.8414C16.6302 17.6065 16.5164 17.3307 16.5164 17.0141C16.5164 16.6974 16.6346 16.4196 16.8709 16.1805C17.1072 15.9457 17.3961 15.8282 17.7374 15.8282C18.0788 15.8282 18.372 15.9457 18.6171 16.1805L20.1138 17.5646C20.3589 17.7994 20.4782 18.0813 20.4717 18.4101C20.4652 18.739 20.3468 19.0284 20.1165 19.2783C19.8732 19.5114 19.5844 19.628 19.25 19.628C18.9156 19.628 18.6171 19.5106 18.3545 19.2757ZM16.884 6.84464C16.639 6.60977 16.5164 6.32877 16.5164 6.00164C16.5164 5.67451 16.639 5.39351 16.884 5.15864L18.3282 3.72429C18.5733 3.48942 18.8674 3.3751 19.2106 3.38133C19.5538 3.38753 19.8557 3.50099 20.1165 3.7217C20.3598 3.95482 20.4814 4.23162 20.4814 4.55211C20.4814 4.87259 20.3589 5.15864 20.1138 5.41028L18.6171 6.84464C18.3895 7.06273 18.1062 7.17177 17.7672 7.17177C17.4283 7.17177 17.1339 7.06273 16.884 6.84464ZM3.88351 19.2783C3.64024 19.0452 3.5186 18.7684 3.5186 18.4479C3.5186 18.1274 3.64114 17.8414 3.88621 17.5897L5.38293 16.1554C5.62451 15.9205 5.9081 15.8031 6.2337 15.8031C6.5593 15.8031 6.84997 15.9205 7.10571 16.1554C7.35763 16.3902 7.48359 16.6712 7.48359 16.9984C7.48359 17.3255 7.36105 17.6065 7.11597 17.8414L5.67177 19.2757C5.4267 19.5106 5.13258 19.6249 4.78942 19.6187C4.44624 19.6125 4.14427 19.499 3.88351 19.2783Z" fill="#8BF8FF"/>
</svg>
