<svg width="163" height="58" viewBox="0 0 163 58" fill="none" xmlns="http://www.w3.org/2000/svg">
<path d="M66.8555 12.1844L73.1087 22.5433H73.7722L80.061 12.1487V26.0926H86.6459V0.198837H80.061L73.4404 11.2605L66.8555 0.198837H60.2349V26.0926H66.8555V12.1844Z" fill="white"/>
<path d="M107.917 23.1711L103.479 20.0641C103.03 20.4906 102.502 20.8244 101.924 21.0466C101.346 21.2688 100.73 21.3749 100.112 21.359C97.9714 21.359 96.5838 20.6063 95.9702 19.101H108.733C108.909 18.3492 108.995 17.5793 108.99 16.8073C108.99 14.0202 108.09 11.7028 106.29 9.85502C104.49 8.00725 102.209 7.08218 99.4482 7.0798C96.5945 7.0798 94.239 8.01677 92.3817 9.8907C91.4702 10.8077 90.7543 11.9002 90.2772 13.1019C89.8002 14.3037 89.572 15.5897 89.6065 16.8823C89.6065 19.6931 90.5494 22.0177 92.4352 23.856C94.321 25.6942 96.8311 26.6134 99.9654 26.6134C103.442 26.6134 106.093 25.4659 107.917 23.1711ZM99.5338 12.2593C101.36 12.2593 102.519 13.1225 103.012 14.849H95.8953C96.4185 13.1225 97.6313 12.2593 99.5338 12.2593Z" fill="white"/>
<path d="M114.873 25.0759C116.364 26.2008 118.948 26.5396 122.624 26.0926V20.5314C121.24 20.6063 120.255 20.5314 119.663 20.3459C119.071 20.1604 118.775 19.6325 118.775 18.8299V13.4792H122.624V7.59703H118.757V2.41757L112.618 4.26891V7.59703H109.843V13.4792H112.618V18.9904C112.618 21.9202 113.37 23.9487 114.873 25.0759Z" fill="white"/>
<path d="M138.18 24.391V26.0926H144.319V7.59703H138.18V9.29855C136.922 7.817 135.171 7.07742 132.926 7.0798C131.751 7.06051 130.587 7.30085 129.516 7.78367C128.444 8.26649 127.493 8.97987 126.73 9.87285C125.065 11.7349 124.233 14.0595 124.233 16.8466C124.233 19.6337 125.065 21.9583 126.73 23.8203C127.493 24.7133 128.444 25.4267 129.516 25.9095C130.587 26.3923 131.751 26.6326 132.926 26.6134C135.159 26.6134 136.91 25.8726 138.18 24.391ZM134.296 20.8881C133.776 20.9092 133.257 20.8215 132.773 20.6304C132.289 20.4394 131.85 20.1493 131.485 19.7788C131.121 19.3875 130.839 18.9276 130.655 18.4259C130.471 17.9243 130.389 17.391 130.415 16.8573C130.389 16.3236 130.471 15.7903 130.655 15.2886C130.839 14.7869 131.121 14.327 131.485 13.9358C132.246 13.2208 133.251 12.8227 134.296 12.8227C135.34 12.8227 136.345 13.2208 137.106 13.9358C137.47 14.3276 137.751 14.7876 137.935 15.2891C138.118 15.7907 138.201 16.3237 138.177 16.8573C138.201 17.3909 138.118 17.9239 137.935 18.4254C137.751 18.927 137.47 19.387 137.106 19.7788C136.741 20.1491 136.302 20.4391 135.818 20.6301C135.334 20.8211 134.816 20.909 134.296 20.8881Z" fill="white"/>
<path d="M60.2349 57.2728H66.8555V48.3942H75.9552V41.9948H66.8555V37.7784H76.1407V31.379H60.2349V57.2728Z" fill="white"/>
<path d="M88.1192 38.26C86.8234 38.2369 85.5363 38.4755 84.335 38.9615C83.1336 39.4476 82.0427 40.1711 81.1276 41.0887C80.2129 41.9975 79.487 43.0782 78.9916 44.2686C78.4962 45.459 78.2412 46.7356 78.2412 48.025C78.2412 49.3144 78.4962 50.591 78.9916 51.7814C79.487 52.9719 80.2129 54.0525 81.1276 54.9613C83.0063 56.7757 85.5162 57.7898 88.1281 57.7898C90.7399 57.7898 93.2498 56.7757 95.1285 54.9613C96.9655 53.1203 97.9971 50.6257 97.9971 48.025C97.9971 45.4243 96.9655 42.9298 95.1285 41.0887C94.2124 40.1674 93.1188 39.4416 91.914 38.9554C90.7091 38.4692 89.4181 38.2326 88.1192 38.26ZM90.8016 50.7984C90.4528 51.1526 90.0343 51.4305 89.5726 51.6147C89.1108 51.7989 88.616 51.8853 88.1192 51.8686C87.6285 51.8829 87.1402 51.7952 86.6852 51.611C86.2302 51.4267 85.8184 51.1501 85.4759 50.7984C84.7957 50.0347 84.4199 49.0477 84.4199 48.025C84.4199 47.0023 84.7957 46.0153 85.4759 45.2516C85.8184 44.8999 86.2302 44.6233 86.6852 44.4391C87.1402 44.2549 87.6285 44.1671 88.1192 44.1814C88.616 44.1647 89.1108 44.2512 89.5726 44.4353C90.0343 44.6195 90.4528 44.8975 90.8016 45.2516C91.4818 46.0153 91.8577 47.0023 91.8577 48.025C91.8577 49.0477 91.4818 50.0347 90.8016 50.7984Z" fill="white"/>
<path d="M106.847 42.2159V38.7772H100.704V57.2728H106.847V49.6142C106.847 47.9495 107.42 46.7414 108.566 45.99C109.697 45.254 111.065 44.976 112.393 45.2123V38.4063C111.161 38.3913 109.952 38.7386 108.915 39.4051C107.897 40.049 107.159 41.0525 106.847 42.2159Z" fill="white"/>
<path d="M123.195 38.26C120.341 38.26 117.987 39.197 116.132 41.0709C115.22 41.9877 114.504 43.0801 114.027 44.2819C113.55 45.4837 113.322 46.7699 113.357 48.0625C113.357 50.8734 114.299 53.1979 116.185 55.0362C118.071 56.8744 120.58 57.7924 123.712 57.79C127.191 57.79 129.843 56.6438 131.667 54.3513L127.229 51.2443C126.322 52.1049 125.111 52.5706 123.862 52.5392C121.721 52.5392 120.334 51.7865 119.72 50.2812H132.48C132.658 49.5299 132.746 48.7598 132.74 47.9876C132.74 45.2004 131.84 42.8818 130.04 41.0317C128.24 39.1815 125.958 38.2576 123.195 38.26ZM119.645 46.0256C120.161 44.3015 121.369 43.4395 123.27 43.4395C125.096 43.4395 126.255 44.3015 126.747 46.0256H119.645Z" fill="white"/>
<path d="M146.445 46.4894C145.569 46.139 144.666 45.861 143.745 45.6582C142.968 45.4951 142.203 45.2855 141.451 45.0304C140.823 44.8057 140.51 44.5239 140.51 44.1779C140.51 43.5857 140.966 43.2897 141.879 43.2897C142.864 43.2897 143.627 43.82 144.169 44.8806L149.349 42.5513C147.922 39.6976 145.382 38.2707 141.729 38.2707C139.847 38.2202 138 38.7919 136.475 39.8973C135.02 40.9817 134.293 42.5109 134.296 44.4847C134.258 45.5754 134.583 46.6478 135.219 47.5346C135.796 48.3223 136.575 48.9388 137.474 49.3181C138.339 49.6785 139.23 49.9741 140.139 50.2028C141.028 50.4263 141.781 50.6487 142.397 50.8698C143.01 51.091 143.32 51.3763 143.32 51.7224C143.32 52.3858 142.764 52.7211 141.655 52.7211C140.199 52.7211 139.237 52.0422 138.769 50.6843L133.418 53.3846C134.8 56.3192 137.562 57.7865 141.705 57.7865C143.688 57.8413 145.644 57.3156 147.333 56.274C148.91 55.2657 149.7 53.6997 149.702 51.5761C149.746 50.417 149.414 49.2747 148.757 48.3193C148.179 47.4986 147.377 46.8629 146.445 46.4894Z" fill="white"/>
<path d="M163 44.6594V38.7773H159.155V33.5978L153.012 35.4491V38.7773H150.237V44.6594H153.012V50.1706C153.012 53.1076 153.758 55.1361 155.249 56.2562C156.74 57.3762 159.323 57.7151 163 57.2728V51.7259C161.618 51.7973 160.631 51.7354 160.039 51.5404C159.451 51.3407 159.155 50.827 159.155 50.0244V44.6737L163 44.6594Z" fill="white"/>
<path d="M49.2767 2.28558C48.763 0.65184 47.6715 0.0275938 46.0377 0.238054C45.0286 0.392898 44.0529 0.717327 43.1519 1.19761C38.3969 3.56618 34.8262 7.16897 32.7609 12.2735C32.1152 13.9108 31.6158 15.6302 31.0451 17.321C30.162 20.0408 29.4999 22.8274 29.0653 25.6538C29.0011 26.0605 28.9619 26.4707 28.9013 26.9273C27.7021 26.3792 26.4003 26.092 25.0819 26.0846C23.7635 26.0773 22.4585 26.3499 21.2533 26.8845C21.2232 26.7814 21.1994 26.6765 21.182 26.5706C20.8892 24.2436 20.4205 21.9422 19.7801 19.686C19.3271 18.0059 18.8206 16.3365 18.2498 14.692C17.7752 13.226 17.1971 11.7956 16.5198 10.4115C14.4202 6.3423 11.034 3.08155 6.88854 1.13697C5.9246 0.620031 4.86702 0.30106 3.77801 0.198816C2.50811 0.134607 1.60563 0.698213 1.08127 1.91103C0.976056 2.14252 0.886673 2.38087 0.813731 2.62446C0.412281 4.10904 0.173073 5.63279 0.100307 7.16897C-0.158024 9.94212 0.0836176 12.7391 0.813731 15.4269C1.79569 18.9163 3.6351 22.1046 6.16442 24.7014C8.33323 26.9308 10.8231 28.7572 13.3629 30.5194C13.6768 30.737 14.0085 30.9153 14.3581 31.1258C13.288 32.7559 13.1417 33.0485 12.9312 34.3076C12.8528 34.8035 12.8064 35.3064 12.7636 35.8094C12.6209 37.3754 12.1037 38.7416 10.9265 39.7903C10.5698 40.1078 10.263 40.5037 9.9206 40.8283C7.67688 43.0756 7.10614 45.8722 7.78032 48.9007C8.29403 51.2186 9.70486 53.2386 11.7042 54.519C13.5821 55.7343 15.6681 56.5929 17.8574 57.0516C21.9836 57.9259 26.2338 58.0468 30.403 57.4083C32.9526 56.9899 35.4181 56.1637 37.7049 54.9613C39.1318 54.2479 40.0985 53.0707 40.9974 51.7972C41.8388 50.6475 42.3539 49.2918 42.4884 47.8734C42.7239 45.1303 42.0639 42.7296 40.1056 40.7962C39.6098 40.304 39.1425 39.7796 38.6573 39.2802C38.1007 38.7264 37.7177 38.0223 37.5551 37.2541C37.403 36.4826 37.2899 35.704 37.2162 34.9212C37.13 33.7743 36.7505 32.6688 36.114 31.7108C35.9998 31.5431 35.8785 31.3826 35.7573 31.2185C35.7854 31.1849 35.8164 31.1539 35.85 31.1258C37.3839 30.0556 38.9391 28.9855 40.4409 27.8761C42.4158 26.4548 44.18 24.7615 45.681 22.8465C48.2111 19.595 49.7671 15.6925 50.1684 11.5922C50.3405 9.71407 50.289 7.82215 50.0151 5.95615C49.8722 4.7141 49.6252 3.48626 49.2767 2.28558Z" fill="white"/>
</svg>
