<svg width="95" height="67" viewBox="0 0 95 67" fill="none" xmlns="http://www.w3.org/2000/svg">
<path d="M6.66881 0.782335C3.49582 1.40955 0.802471 4.1398 0.1937 7.38658C-0.0645666 8.7517 -0.0645666 58.8185 0.1937 60.1836C0.820918 63.5042 3.49582 66.1791 6.81639 66.8063C8.18151 67.0646 86.2886 67.0646 87.6538 66.8063C90.9743 66.1791 93.6492 63.5042 94.2765 60.1836C94.5347 58.8185 94.5347 8.7517 94.2765 7.38658C93.6492 4.06601 90.9743 1.39111 87.6538 0.763888C86.4178 0.542517 7.8679 0.542517 6.66881 0.782335ZM68.7265 22.2738C57.658 33.287 52.179 38.6184 51.478 39.0427C48.8954 40.6107 45.5748 40.6107 42.9921 39.0427C42.2911 38.6184 36.8122 33.287 25.7436 22.2738L9.50974 6.13214H47.2351H84.9604L68.7265 22.2738ZM22.0541 26.3876L29.4331 33.7851L20.2093 43.0273C15.1363 48.1004 9.768 53.4318 8.27375 54.8523L5.5435 57.4349V33.7851V10.1353L10.1185 14.5627C12.6274 16.9978 17.9956 22.3291 22.0541 26.3876ZM88.8898 45.6285L88.8344 57.4903L76.9357 45.6285L65.037 33.7851L76.9357 21.9417L88.8344 10.0984L88.8898 21.9417C88.9082 28.4537 88.9082 39.1165 88.8898 45.6285ZM35.3364 39.7068C38.6754 43.0642 40.6124 44.4109 43.3611 45.2595C44.5233 45.61 45.1505 45.6838 47.2351 45.6838C50.076 45.6838 51.5518 45.3333 53.6917 44.1711C55.2782 43.3225 56.1084 42.6215 58.8017 40.0019L61.0523 37.7882L65.4429 42.0496C67.8595 44.3925 73.2277 49.7054 77.3969 53.8745L84.9604 61.4565H47.2351L9.50974 61.438L21.3715 49.65C27.902 43.1565 33.2887 37.8436 33.3625 37.8436C33.4363 37.8436 34.3218 38.6737 35.3364 39.7068Z" fill="white"/>
<path d="M22.0541 26.3876L29.4331 33.7851L20.2093 43.0273C15.1363 48.1004 9.768 53.4318 8.27375 54.8523L5.5435 57.4349V33.7851V10.1353L10.1185 14.5627C12.6274 16.9978 17.9956 22.3291 22.0541 26.3876Z" fill="url(#paint0_linear_21_136)"/>
<path d="M35.3364 39.7068C38.6754 43.0642 40.6124 44.4109 43.3611 45.2595C44.5233 45.61 45.1505 45.6838 47.2351 45.6838C50.076 45.6838 51.5518 45.3333 53.6917 44.1711C55.2782 43.3225 56.1084 42.6215 58.8017 40.0019L61.0523 37.7882L65.4429 42.0496C67.8595 44.3925 73.2277 49.7054 77.3969 53.8745L84.9604 61.4565H47.2351L9.50974 61.438L21.3715 49.65C27.902 43.1565 33.2887 37.8436 33.3625 37.8436C33.4363 37.8436 34.3218 38.6737 35.3364 39.7068Z" fill="url(#paint1_linear_21_136)"/>
<path d="M88.8898 45.6285L88.8344 57.4903L76.9357 45.6285L65.037 33.7851L76.9357 21.9417L88.8344 10.0984L88.8898 21.9417C88.9082 28.4537 88.9082 39.1165 88.8898 45.6285Z" fill="url(#paint2_linear_21_136)"/>
<path d="M68.7265 22.2738C57.658 33.287 52.179 38.6184 51.478 39.0427C48.8954 40.6107 45.5748 40.6107 42.9921 39.0427C42.2911 38.6184 36.8122 33.287 25.7436 22.2738L9.50974 6.13214H47.2351H84.9604L68.7265 22.2738Z" fill="url(#paint3_linear_21_136)"/>
<defs>
<linearGradient id="paint0_linear_21_136" x1="2.9637e-07" y1="33.2893" x2="94.4702" y2="33.2893" gradientUnits="userSpaceOnUse">
<stop stop-color="#65D6CB"/>
<stop offset="1" stop-color="#5FFFCF"/>
<stop offset="1" stop-color="#5FFFCF"/>
</linearGradient>
<linearGradient id="paint1_linear_21_136" x1="2.9637e-07" y1="33.2893" x2="94.4702" y2="33.2893" gradientUnits="userSpaceOnUse">
<stop stop-color="#65D6CB"/>
<stop offset="1" stop-color="#5FFFCF"/>
<stop offset="1" stop-color="#5FFFCF"/>
</linearGradient>
<linearGradient id="paint2_linear_21_136" x1="2.9637e-07" y1="33.2893" x2="94.4702" y2="33.2893" gradientUnits="userSpaceOnUse">
<stop stop-color="#65D6CB"/>
<stop offset="1" stop-color="#5FFFCF"/>
<stop offset="1" stop-color="#5FFFCF"/>
</linearGradient>
<linearGradient id="paint3_linear_21_136" x1="2.9637e-07" y1="33.2893" x2="94.4702" y2="33.2893" gradientUnits="userSpaceOnUse">
<stop stop-color="#65D6CB"/>
<stop offset="1" stop-color="#5FFFCF"/>
<stop offset="1" stop-color="#5FFFCF"/>
</linearGradient>
</defs>
</svg>
