<svg width="93" height="88" viewBox="0 0 93 88" fill="none" xmlns="http://www.w3.org/2000/svg">
<path d="M65.0055 51.7827C66.0236 51.7804 67.03 51.5686 67.9626 51.1607C68.8952 50.7527 69.734 50.1573 70.4259 49.4116C71.1811 48.6979 71.7828 47.8382 72.1944 46.8848C72.606 45.9314 72.8189 44.9043 72.8201 43.8661C72.8169 42.8536 72.602 41.8527 72.1898 40.9276C71.7775 40.0024 71.1771 39.1731 70.4259 38.4927C69.7235 37.7622 68.8798 37.1811 67.9467 36.784C67.0136 36.387 66.0104 36.1823 64.9961 36.1823C63.9818 36.1823 62.9777 36.387 62.0446 36.784C61.1115 37.1811 60.2688 37.7622 59.5663 38.4927C58.8151 39.1731 58.2138 40.0024 57.8016 40.9276C57.3893 41.8527 57.1753 42.8536 57.1722 43.8661C57.1734 44.9043 57.3862 45.9314 57.7978 46.8848C58.2094 47.8382 58.8112 48.6979 59.5663 49.4116C60.2619 50.1579 61.1033 50.7535 62.039 51.1614C62.9747 51.5693 63.9845 51.7807 65.0055 51.7827ZM51.0615 66.7936C49.8558 66.8558 48.6506 66.6726 47.518 66.2551C46.3854 65.8376 45.349 65.1946 44.473 64.365C43.6451 63.5072 43.0016 62.49 42.5801 61.3756C42.1586 60.2611 41.9684 59.0727 42.0218 57.8826V30.1938C41.9585 28.9969 42.1433 27.8 42.5651 26.6779C42.987 25.5558 43.6365 24.5327 44.473 23.673C45.3574 22.8592 46.3959 22.2303 47.5274 21.8231C48.6588 21.4159 49.8604 21.2387 51.0615 21.3019H83.9285C85.1326 21.2372 86.3381 21.4136 87.4729 21.8208C88.6078 22.228 89.6494 22.8578 90.5367 23.673C91.3731 24.5327 92.0227 25.5558 92.4445 26.6779C92.8664 27.8 93.0511 28.9969 92.9879 30.1938V57.8826C93.0412 59.0727 92.852 60.2611 92.4305 61.3756C92.009 62.49 91.3646 63.5072 90.5367 64.365C89.6578 65.196 88.6183 65.8399 87.4823 66.2574C86.3463 66.6749 85.1373 66.8573 83.9285 66.7936H51.0615ZM7.31615 87.828C6.36854 87.8196 5.43263 87.6206 4.56383 87.2428C3.69504 86.8649 2.91094 86.316 2.25947 85.6289C1.54602 84.9789 0.976514 84.1874 0.587321 83.3049C0.198128 82.4224 -0.00156427 81.4685 9.22686e-06 80.5043V7.30459C0.0843362 5.39433 0.881838 3.58481 2.23609 2.23274C3.59035 0.880666 5.4028 0.084219 7.31615 2.81367e-05H80.6347C81.6007 -0.00272493 82.5562 0.196584 83.4403 0.585224C84.3244 0.973864 85.1169 1.54308 85.7671 2.25631C86.4571 2.90536 87.0083 3.68738 87.3869 4.55508C87.7655 5.42278 87.9634 6.35816 87.9695 7.30459V13.9016H51.0615C48.8951 13.8355 46.7383 14.2119 44.7227 15.0076C42.707 15.8033 40.8758 17.0017 39.3405 18.5293C37.8131 20.041 36.6115 21.8492 35.8111 23.8423C35.0106 25.8353 34.6278 27.9709 34.686 30.1174V57.8063C34.6328 59.9625 35.0213 62.1068 35.8269 64.108C36.6326 66.1093 37.8384 67.9255 39.3714 69.4453C40.9044 70.9651 42.7321 72.1565 44.7423 72.9467C46.7524 73.7369 48.9022 74.1093 51.0615 74.041H87.9695V80.6763C87.921 82.6034 87.1334 84.4383 85.7681 85.8014C84.4027 87.1645 82.5649 87.9516 80.6347 88L7.31615 87.828Z" fill="white"/>
</svg>
