<svg width="28" height="28" viewBox="0 0 28 28" fill="none" xmlns="http://www.w3.org/2000/svg">
<path d="M13.9999 27.9995C12.1146 28.0153 10.2454 27.6521 8.50324 26.9316C6.84132 26.2497 5.33127 25.245 4.06064 23.9754C2.78644 22.7043 1.77456 21.1952 1.08245 19.534C-0.360817 16.0004 -0.360817 12.0419 1.08245 8.5083C1.98791 6.40392 3.3937 4.55243 5.17773 3.11481C6.96175 1.67719 9.07006 0.696944 11.3193 0.259212C13.5684 -0.178519 15.8906 -0.0605169 18.0837 0.603072C20.2769 1.26666 22.2747 2.45573 23.9037 4.06687C25.1738 5.34424 26.1893 6.85152 26.896 8.5083C27.6247 10.255 28 12.1286 28 14.0211C28 15.9136 27.6247 17.7873 26.896 19.534C26.1906 21.1914 25.1749 22.6989 23.9037 23.9754C22.6305 25.2452 21.1181 26.2499 19.454 26.9316C17.7261 27.6501 15.8712 28.0133 13.9999 27.9995V27.9995ZM12.9104 17.0516H14.976C14.9709 16.4896 15.0472 15.9298 15.2024 15.3896C15.5069 14.6937 15.9962 14.0945 16.6173 13.657C17.2419 13.1675 17.7638 12.5594 18.1525 11.8676C18.4609 11.2737 18.6188 10.6132 18.6122 9.944C18.6357 9.39109 18.5398 8.83955 18.3311 8.327C18.1223 7.81445 17.8057 7.35285 17.4026 6.97358C16.5212 6.19657 15.3718 5.79327 14.198 5.84911C13.1255 5.83081 12.0718 6.13107 11.1702 6.71191C10.3043 7.28086 9.63879 8.107 9.2673 9.07403L11.1206 9.78126C11.3454 9.16924 11.7468 8.63768 12.2738 8.25371C12.8088 7.88903 13.4444 7.70106 14.0918 7.7162C14.7931 7.68379 15.4816 7.91311 16.0232 8.35972C16.2561 8.56765 16.4402 8.82447 16.5625 9.11176C16.6848 9.39904 16.7422 9.70978 16.7306 10.0218C16.7299 10.5419 16.572 11.0497 16.2777 11.4786C15.9034 12.0105 15.4557 12.4867 14.9479 12.8931C14.3322 13.4033 13.806 14.0129 13.3914 14.6966C13.0264 15.4259 12.8558 16.2371 12.8963 17.0516H12.9104ZM14.1342 22.1578C14.3521 22.1565 14.5665 22.1017 14.7582 21.9982C14.95 21.8946 15.1133 21.7456 15.2339 21.5642C15.3545 21.3827 15.4287 21.1743 15.4499 20.9575C15.4711 20.7407 15.4387 20.522 15.3555 20.3206C15.2723 20.1193 15.1408 19.9415 14.9727 19.8028C14.8047 19.6642 14.6051 19.5688 14.3916 19.5254C14.178 19.4819 13.9572 19.4916 13.7482 19.5535C13.5393 19.6154 13.3488 19.7277 13.1935 19.8805C12.9446 20.1332 12.8051 20.4736 12.8051 20.8282C12.8051 21.1828 12.9446 21.5232 13.1935 21.7759C13.3146 21.8983 13.4588 21.9951 13.618 22.0607C13.7772 22.1263 13.9479 22.1593 14.1201 22.1578H14.1342Z" fill="white"/>
</svg>
