<svg width="46" height="46" viewBox="0 0 46 46" fill="none" xmlns="http://www.w3.org/2000/svg">
<g clip-path="url(#clip0_23_17)">
<path d="M3.22539 0.0897427C2.97383 0.233493 0 4.79755 0 5.03115C0 5.1749 0.592969 6.14521 1.57227 7.60966C3.20742 10.0714 3.28828 10.1612 3.81836 10.0265C3.98906 9.98154 4.42031 9.40654 5.61523 7.60966C6.59453 6.14521 7.1875 5.1749 7.1875 5.03115C7.1875 4.77959 4.1957 0.215524 3.94414 0.0807581C3.74648 -0.0180702 3.41406 -0.0180702 3.22539 0.0897427ZM4.62695 3.57568L5.59727 5.03115L4.61797 6.51357C4.07891 7.32216 3.6207 7.99599 3.59375 7.99599C3.5668 7.99599 3.10859 7.33115 2.56953 6.51357L1.59922 5.04013L2.56953 3.54873C3.10859 2.73115 3.5668 2.07529 3.60273 2.08427C3.63867 2.10224 4.09688 2.76709 4.62695 3.57568Z" fill="url(#paint0_linear_23_17)"/>
<path d="M4.62695 3.57568L5.59727 5.03115L4.61797 6.51357C4.07891 7.32216 3.6207 7.99599 3.59375 7.99599C3.5668 7.99599 3.10859 7.33115 2.56953 6.51357L1.59922 5.04013L2.56953 3.54873C3.10859 2.73115 3.5668 2.07529 3.60273 2.08427C3.63867 2.10224 4.09688 2.76709 4.62695 3.57568Z" fill="url(#paint1_linear_23_17)"/>
<path d="M22.5059 3.09947L22.2813 3.31509V6.68423V10.0534L21.7692 10.1073C19.3254 10.3768 17.825 10.7811 15.9383 11.6795C10.6914 14.1772 7.19649 19.1006 6.56759 24.9045C6.07345 29.4147 7.59181 34.1225 10.6555 37.5546C13.4137 40.6452 17.1781 42.5768 21.3109 43.026C22.7664 43.1878 23.2426 43.1608 23.4942 42.9003L23.7188 42.6846V39.3155V35.9463L24.1051 35.9014C25.7313 35.7128 26.2074 35.6319 26.9801 35.4342C31.643 34.2753 35.5692 31.1217 37.7344 26.8272C39.1899 23.9432 39.7738 20.8077 39.4324 17.717C38.5789 9.89165 32.5145 3.8272 24.6891 2.97369C23.2336 2.81197 22.7574 2.83892 22.5059 3.09947ZM25.5156 4.54595C25.9379 4.61782 26.3871 4.69869 26.5219 4.74361L26.7645 4.8065L25.9559 5.87564C25.1922 6.89986 25.0754 7.15142 25.2102 7.50181C25.2461 7.58267 25.7492 7.969 26.3332 8.36431C27.2766 8.99322 27.4024 9.11001 27.4832 9.4065C27.5281 9.59517 27.6899 10.2331 27.8426 10.826C28.0402 11.6077 28.166 11.9491 28.3098 12.0569C28.4715 12.2006 28.7141 12.2186 30.1426 12.2186H31.7867L32.0832 13.4495L32.3797 14.6893L33.6465 15.9651C34.7336 17.0702 34.9492 17.2499 35.1918 17.2499C35.4793 17.2499 35.677 17.1061 36.9078 16.01L37.5457 15.444L37.6356 15.7854C37.941 16.8545 38.0399 17.7979 38.0488 19.469C38.0488 20.8885 38.0219 21.221 37.9141 21.3198C37.8422 21.3917 36.9707 21.6432 35.9824 21.8858C33.5746 22.4788 33.5567 22.4878 34.0508 23.9432C34.2035 24.3835 34.3203 24.7518 34.3203 24.7698C34.3203 24.7788 33.7543 25.0753 33.0625 25.4256C32.209 25.8569 31.7688 26.1264 31.7149 26.2612C31.6699 26.369 31.5262 26.8811 31.4004 27.4022C31.2656 27.9233 31.1309 28.4983 31.077 28.678C30.9961 28.9835 30.8883 29.0733 29.5496 29.8729C28.732 30.3671 28.0582 30.7174 27.9774 30.6905C27.7617 30.6096 26.7734 29.9178 26.7734 29.846C26.7734 29.81 26.8992 29.4057 27.052 28.9385L27.3395 28.094L26.9442 25.7491C26.4949 23.0088 26.5309 23.0897 25.5156 22.928C25.1473 22.8651 24.5902 22.7753 24.2848 22.7213L23.7188 22.6225V13.4674V4.31236L24.2399 4.36626C24.5184 4.39322 25.0934 4.47408 25.5156 4.54595ZM29.4508 5.79478C31.9574 7.00767 33.9789 8.74165 35.5063 11.0057C36.0363 11.7963 37.0156 13.6561 37.0156 13.8897C37.0156 13.9526 36.6203 14.3479 36.1442 14.7702L35.2637 15.5338L34.482 14.7612L33.7004 13.9885L33.359 12.587C32.8918 10.6643 33.0445 10.7811 30.9692 10.7811H29.307L29.0195 9.58619C28.8578 8.93931 28.6961 8.33736 28.6512 8.2565C28.6152 8.17564 28.2109 7.87915 27.7707 7.58267C27.3125 7.28618 26.9711 7.00767 26.9981 6.94478C27.0969 6.66626 28.184 5.30962 28.3008 5.30962C28.3727 5.30064 28.8938 5.52525 29.4508 5.79478ZM22.2813 15.1475V18.7053L21.3649 18.6424C19.5949 18.5346 16.702 18.1663 16.5672 18.0315C16.5133 17.9776 17.3938 16.028 17.7352 15.453C18.8582 13.5752 20.1879 12.2905 21.5176 11.7963C21.8141 11.6885 22.1106 11.5987 22.1734 11.5987C22.2543 11.5897 22.2813 12.3624 22.2813 15.1475ZM17.834 12.7756C16.9805 13.728 16.1449 15.1116 15.4981 16.6659C15.2645 17.2049 15.0758 17.6631 15.0578 17.6721C14.959 17.7799 11.8594 16.6299 11.8594 16.4862C11.8594 16.2526 13.6742 14.6803 14.7703 13.9706C15.7945 13.3057 17.7891 12.3354 18.1754 12.3085C18.2203 12.3085 18.0676 12.5241 17.834 12.7756ZM11.7067 18.0495C12.1559 18.2471 13.0004 18.5526 13.5664 18.7413C14.1324 18.921 14.6086 19.0827 14.6176 19.0827C14.6266 19.0917 14.5547 19.3971 14.4649 19.7655C14.1055 21.1491 13.6563 24.4194 13.6563 25.6592V25.8749H10.7813H7.90626L7.9422 25.6682C7.96915 25.5604 8.01407 25.1831 8.04103 24.8417C8.16681 23.4042 8.64298 21.7331 9.38868 20.1698C9.79298 19.2893 10.7363 17.6991 10.8352 17.6991C10.8531 17.6991 11.2484 17.8608 11.7067 18.0495ZM17.4297 19.6667C18.4539 19.8374 19.7207 19.9721 21.4098 20.0799L22.2813 20.1428V23.0088V25.8749H18.6785H15.0848L15.1387 25.0842C15.2824 23.1167 15.5879 21.194 15.9652 19.8733C16.0641 19.5049 16.127 19.4061 16.2438 19.442C16.3246 19.469 16.8637 19.5678 17.4297 19.6667ZM37.5906 23.2424C37.4289 23.8983 36.8719 25.3628 36.4766 26.1354C35.0211 29.0374 32.6313 31.4362 29.7652 32.8737C27.9414 33.7811 26.5219 34.1854 24.1949 34.4549L23.7188 34.5088V29.2889V24.078L23.9254 24.1229C24.0332 24.1409 24.3656 24.2038 24.6531 24.2577C24.9496 24.3026 25.2012 24.3655 25.2192 24.3835C25.2371 24.4014 25.3899 25.219 25.5516 26.1893L25.8481 27.9682L25.4887 29.0553C25.2371 29.819 25.1473 30.2233 25.1922 30.394C25.2371 30.5827 25.5426 30.8342 26.5309 31.4901C27.2406 31.9663 27.8965 32.3436 28.0133 32.3436C28.202 32.3436 31.8406 30.2503 32.1461 29.9628C32.218 29.8999 32.4246 29.235 32.6133 28.4713C32.8109 27.7167 32.9996 27.0788 33.0356 27.0608C33.0715 27.0428 33.7184 26.7194 34.4551 26.342C36.0992 25.4975 36.0902 25.5155 35.7129 24.3475C35.5692 23.9073 35.4703 23.5299 35.4973 23.512C35.5512 23.4581 37.3031 23.0178 37.4918 23.0088C37.6176 22.9999 37.6356 23.0448 37.5906 23.2424ZM13.6563 27.528C13.6563 28.7409 14.1145 32.0651 14.4649 33.4217C14.5547 33.7901 14.6266 34.0956 14.6176 34.1046C14.6086 34.1135 14.1414 34.2663 13.5754 34.446C13.0184 34.6256 12.1738 34.9311 11.6977 35.1378C11.2305 35.3354 10.8172 35.4702 10.7902 35.4253C9.36173 33.5026 8.23868 30.6006 8.04103 28.3456C8.01407 27.9952 7.96915 27.6268 7.9422 27.51L7.90626 27.3124H10.7813H13.6563V27.528ZM22.2813 30.1784V33.0444L21.4098 33.0983C19.2805 33.2421 16.8906 33.5385 16.2438 33.7452C16.127 33.7811 16.0641 33.6823 15.9652 33.3139C15.5879 31.9932 15.2824 30.0706 15.1387 28.094L15.0848 27.3124H18.6785H22.2813V30.1784ZM22.2813 38.0487C22.2813 40.3038 22.2453 41.5975 22.1914 41.5975C22.1465 41.5975 21.841 41.4987 21.5176 41.3819C20.1609 40.8608 18.8762 39.6299 17.7352 37.7342C17.3938 37.1503 16.5133 35.2096 16.5672 35.1557C16.5852 35.1378 17.0344 35.0479 17.5734 34.9491C18.7504 34.7514 20.4664 34.5807 21.9039 34.5178L22.2813 34.4999V38.0487ZM15.4082 36.3147C16.0461 37.9049 16.9715 39.4503 17.843 40.4206C18.3461 40.9866 18.3192 40.9866 16.9895 40.4026C15.9293 39.9444 14.4738 39.0729 13.6293 38.3991C12.8477 37.7612 11.8594 36.8178 11.8594 36.6921C11.8594 36.6471 11.9942 36.5483 12.1559 36.4854C12.5152 36.3327 14.941 35.4971 15.0129 35.4881C15.0399 35.4881 15.2195 35.8655 15.4082 36.3147Z" fill="url(#paint2_linear_23_17)"/>
<path d="M29.4508 5.79478C31.9574 7.00767 33.9789 8.74165 35.5063 11.0057C36.0363 11.7963 37.0156 13.6561 37.0156 13.8897C37.0156 13.9526 36.6203 14.3479 36.1442 14.7702L35.2637 15.5338L34.482 14.7612L33.7004 13.9885L33.359 12.587C32.8918 10.6643 33.0445 10.7811 30.9692 10.7811H29.307L29.0195 9.58619C28.8578 8.93931 28.6961 8.33736 28.6512 8.2565C28.6152 8.17564 28.2109 7.87915 27.7707 7.58267C27.3125 7.28618 26.9711 7.00767 26.9981 6.94478C27.0969 6.66626 28.184 5.30962 28.3008 5.30962C28.3727 5.30064 28.8938 5.52525 29.4508 5.79478Z" fill="url(#paint3_linear_23_17)"/>
<path d="M37.5906 23.2424C37.4289 23.8983 36.8719 25.3628 36.4766 26.1354C35.0211 29.0374 32.6313 31.4362 29.7652 32.8737C27.9414 33.7811 26.5219 34.1854 24.1949 34.4549L23.7188 34.5088V29.2889V24.078L23.9254 24.1229C24.0332 24.1409 24.3656 24.2038 24.6531 24.2577C24.9496 24.3026 25.2012 24.3655 25.2192 24.3835C25.2371 24.4014 25.3899 25.219 25.5516 26.1893L25.8481 27.9682L25.4887 29.0553C25.2371 29.819 25.1473 30.2233 25.1922 30.394C25.2371 30.5827 25.5426 30.8342 26.5309 31.4901C27.2406 31.9663 27.8965 32.3436 28.0133 32.3436C28.202 32.3436 31.8406 30.2503 32.1461 29.9628C32.218 29.8999 32.4246 29.235 32.6133 28.4713C32.8109 27.7167 32.9996 27.0788 33.0356 27.0608C33.0715 27.0428 33.7184 26.7194 34.4551 26.342C36.0992 25.4975 36.0902 25.5155 35.7129 24.3475C35.5692 23.9073 35.4703 23.5299 35.4973 23.512C35.5512 23.4581 37.3031 23.0178 37.4918 23.0088C37.6176 22.9999 37.6356 23.0448 37.5906 23.2424Z" fill="url(#paint4_linear_23_17)"/>
<path d="M40.25 5.03125V5.75H40.9688H41.6875V5.03125V4.3125H40.9688H40.25V5.03125Z" fill="url(#paint5_linear_23_17)"/>
<path d="M12.2188 7.1875V7.90625H12.9375H13.6562V7.1875V6.46875H12.9375H12.2188V7.1875Z" fill="url(#paint6_linear_23_17)"/>
<path d="M5.03125 14.375V15.0938H5.75H6.46875V14.375V13.6562H5.75H5.03125V14.375Z" fill="url(#paint7_linear_23_17)"/>
<path d="M39.8187 34.6527C39.7199 34.7426 39.3605 35.4613 39.0281 36.2519C38.552 37.384 38.3453 37.7703 38.0578 38.0578C37.7703 38.3453 37.384 38.5519 36.252 39.0281C35.4613 39.3605 34.7426 39.7199 34.6617 39.8187C34.5719 39.9176 34.5 40.1152 34.5 40.25C34.5 40.3847 34.5719 40.5824 34.6617 40.6812C34.7426 40.7801 35.4613 41.1394 36.252 41.4719C38.1477 42.2715 38.2285 42.3523 39.0281 44.248C39.3605 45.0387 39.7199 45.7574 39.8187 45.8383C40.0523 46.0449 40.4477 46.0449 40.6813 45.8472C40.7801 45.7574 41.1395 45.0387 41.4719 44.248C41.8492 43.3586 42.1996 42.6847 42.3793 42.4871C42.6129 42.2355 43.0082 42.0199 44.1762 41.5168C45.0117 41.1574 45.7574 40.7801 45.8473 40.6812C45.9281 40.5824 46 40.3847 46 40.25C46 40.1152 45.9281 39.9176 45.8473 39.8187C45.7574 39.7199 45.0117 39.3426 44.1762 38.9832C43.0082 38.4801 42.6129 38.2644 42.3793 38.0129C42.1996 37.8152 41.8492 37.1414 41.4719 36.2519C41.1395 35.4613 40.7801 34.7426 40.6813 34.6527C40.5824 34.5719 40.3848 34.5 40.25 34.5C40.1152 34.5 39.9176 34.5719 39.8187 34.6527ZM40.5016 37.6265C40.9688 38.7855 41.7145 39.5312 42.8465 39.9805C43.152 40.1062 43.3945 40.223 43.3945 40.25C43.3945 40.2769 43.1609 40.3847 42.8734 40.5015C41.6875 40.9867 40.9777 41.6965 40.5195 42.8375C40.3938 43.143 40.277 43.3945 40.25 43.3945C40.223 43.3945 40.1242 43.1879 40.0254 42.9273C39.5852 41.7863 38.8844 41.0496 37.7523 40.5554C37.4469 40.4207 37.1953 40.2859 37.1953 40.25C37.1953 40.214 37.4199 40.0883 37.6984 39.9805C38.8035 39.5312 39.5223 38.7855 39.9984 37.6265C40.1152 37.339 40.223 37.1055 40.25 37.1055C40.277 37.1055 40.3848 37.339 40.5016 37.6265Z" fill="url(#paint8_linear_23_17)"/>
<path d="M40.5016 37.6265C40.9688 38.7855 41.7145 39.5312 42.8465 39.9805C43.152 40.1062 43.3945 40.223 43.3945 40.25C43.3945 40.2769 43.1609 40.3847 42.8734 40.5015C41.6875 40.9867 40.9777 41.6965 40.5195 42.8375C40.3938 43.143 40.277 43.3945 40.25 43.3945C40.223 43.3945 40.1242 43.1879 40.0254 42.9273C39.5852 41.7863 38.8844 41.0496 37.7523 40.5554C37.4469 40.4207 37.1953 40.2859 37.1953 40.25C37.1953 40.214 37.4199 40.0883 37.6984 39.9805C38.8035 39.5312 39.5223 38.7855 39.9984 37.6265C40.1152 37.339 40.223 37.1055 40.25 37.1055C40.277 37.1055 40.3848 37.339 40.5016 37.6265Z" fill="url(#paint9_linear_23_17)"/>
<path d="M33.7812 35.9375V36.6562H34.5H35.2188V35.9375V35.2188H34.5H33.7812V35.9375Z" fill="url(#paint10_linear_23_17)"/>
<path d="M28.75 40.25V40.9688H29.4688H30.1875V40.25V39.5312H29.4688H28.75V40.25Z" fill="url(#paint11_linear_23_17)"/>
<path d="M2.875 40.9688V41.6875H3.59375H4.3125V40.9688V40.25H3.59375H2.875V40.9688Z" fill="url(#paint12_linear_23_17)"/>
</g>
<defs>
<linearGradient id="paint0_linear_23_17" x1="2.25485e-08" y1="4.95909" x2="7.1875" y2="4.95909" gradientUnits="userSpaceOnUse">
<stop stop-color="#5F61FF"/>
<stop offset="1" stop-color="#49B3FF"/>
</linearGradient>
<linearGradient id="paint1_linear_23_17" x1="2.25485e-08" y1="4.95909" x2="7.1875" y2="4.95909" gradientUnits="userSpaceOnUse">
<stop stop-color="#5F61FF"/>
<stop offset="1" stop-color="#49B3FF"/>
</linearGradient>
<linearGradient id="paint2_linear_23_17" x1="6.47571" y1="22.6902" x2="39.5272" y2="22.6902" gradientUnits="userSpaceOnUse">
<stop stop-color="#5F61FF"/>
<stop offset="1" stop-color="#49B3FF"/>
</linearGradient>
<linearGradient id="paint3_linear_23_17" x1="6.47571" y1="22.6902" x2="39.5272" y2="22.6902" gradientUnits="userSpaceOnUse">
<stop stop-color="#5F61FF"/>
<stop offset="1" stop-color="#49B3FF"/>
</linearGradient>
<linearGradient id="paint4_linear_23_17" x1="6.47571" y1="22.6902" x2="39.5272" y2="22.6902" gradientUnits="userSpaceOnUse">
<stop stop-color="#5F61FF"/>
<stop offset="1" stop-color="#49B3FF"/>
</linearGradient>
<linearGradient id="paint5_linear_23_17" x1="40.25" y1="5.02019" x2="41.6875" y2="5.02019" gradientUnits="userSpaceOnUse">
<stop stop-color="#5F61FF"/>
<stop offset="1" stop-color="#49B3FF"/>
</linearGradient>
<linearGradient id="paint6_linear_23_17" x1="12.2188" y1="7.17644" x2="13.6563" y2="7.17644" gradientUnits="userSpaceOnUse">
<stop stop-color="#5F61FF"/>
<stop offset="1" stop-color="#49B3FF"/>
</linearGradient>
<linearGradient id="paint7_linear_23_17" x1="5.03125" y1="14.3639" x2="6.46875" y2="14.3639" gradientUnits="userSpaceOnUse">
<stop stop-color="#5F61FF"/>
<stop offset="1" stop-color="#49B3FF"/>
</linearGradient>
<linearGradient id="paint8_linear_23_17" x1="34.5" y1="40.1588" x2="46" y2="40.1588" gradientUnits="userSpaceOnUse">
<stop stop-color="#5F61FF"/>
<stop offset="1" stop-color="#49B3FF"/>
</linearGradient>
<linearGradient id="paint9_linear_23_17" x1="34.5" y1="40.1588" x2="46" y2="40.1588" gradientUnits="userSpaceOnUse">
<stop stop-color="#5F61FF"/>
<stop offset="1" stop-color="#49B3FF"/>
</linearGradient>
<linearGradient id="paint10_linear_23_17" x1="33.7813" y1="35.9264" x2="35.2188" y2="35.9264" gradientUnits="userSpaceOnUse">
<stop stop-color="#5F61FF"/>
<stop offset="1" stop-color="#49B3FF"/>
</linearGradient>
<linearGradient id="paint11_linear_23_17" x1="28.75" y1="40.2389" x2="30.1875" y2="40.2389" gradientUnits="userSpaceOnUse">
<stop stop-color="#5F61FF"/>
<stop offset="1" stop-color="#49B3FF"/>
</linearGradient>
<linearGradient id="paint12_linear_23_17" x1="2.875" y1="40.9577" x2="4.3125" y2="40.9577" gradientUnits="userSpaceOnUse">
<stop stop-color="#5F61FF"/>
<stop offset="1" stop-color="#49B3FF"/>
</linearGradient>
<clipPath id="clip0_23_17">
<rect width="46" height="46" fill="white"/>
</clipPath>
</defs>
</svg>
