<svg width="27" height="19" viewBox="0 0 27 19" fill="none" xmlns="http://www.w3.org/2000/svg">
<path d="M1.2665 19C0.908986 19 0.608519 18.8734 0.365096 18.6201C0.121699 18.3668 0 18.0541 0 17.6821C0 17.31 0.121699 16.9996 0.365096 16.7508C0.608519 16.502 0.908986 16.3776 1.2665 16.3776H18.3688C18.7263 16.3776 19.0267 16.5043 19.2702 16.7576C19.5136 17.0108 19.6353 17.3235 19.6353 17.6956C19.6353 18.0676 19.5136 18.378 19.2702 18.6268C19.0267 18.8756 18.7263 19 18.3688 19H1.2665ZM1.2665 10.7388C0.908986 10.7388 0.608519 10.6121 0.365096 10.3589C0.121699 10.1056 0 9.79291 0 9.42088C0 9.04884 0.121699 8.73841 0.365096 8.48961C0.608519 8.24084 0.908986 8.11645 1.2665 8.11645H13.9073C14.2648 8.11645 14.5653 8.24309 14.8087 8.49639C15.0521 8.74968 15.1738 9.06233 15.1738 9.43435C15.1738 9.8064 15.0521 10.1168 14.8087 10.3656C14.5653 10.6144 14.2648 10.7388 13.9073 10.7388H1.2665ZM1.2665 2.63158C0.908986 2.63158 0.608519 2.50494 0.365096 2.25164C0.121699 1.99835 0 1.68568 0 1.31363C0 0.941613 0.121699 0.629663 0.365096 0.377782C0.608519 0.125927 0.908986 0 1.2665 0H18.3688C18.7263 0 19.0267 0.128185 19.2702 0.384556C19.5136 0.640902 19.6353 0.955098 19.6353 1.32715C19.6353 1.69917 19.5136 2.00958 19.2702 2.25838C19.0267 2.50718 18.7263 2.63158 18.3688 2.63158H1.2665ZM22.098 9.46611L26.6386 14.1669C26.8914 14.4286 27.0115 14.7348 26.9991 15.0857C26.9867 15.4366 26.8542 15.7428 26.6015 16.0045C26.3428 16.2661 26.0393 16.3969 25.691 16.3969C25.3426 16.3969 25.0421 16.2661 24.7894 16.0045L19.3613 10.3849C19.1086 10.1232 18.9822 9.81699 18.9822 9.46611C18.9822 9.11523 19.1086 8.80898 19.3613 8.54735L24.7894 2.92776C25.0421 2.66616 25.3426 2.53536 25.691 2.53536C26.0393 2.53536 26.3428 2.66616 26.6015 2.92776C26.8542 3.1894 26.9805 3.50206 26.9805 3.86577C26.9805 4.22948 26.8542 4.54215 26.6015 4.80378L22.098 9.46611Z" fill="white"/>
</svg>
