<svg width="81" height="87" viewBox="0 0 81 87" fill="none" xmlns="http://www.w3.org/2000/svg">
<path d="M58 14.5C59 21.5 50.4934 26.9999 40 26.9999C29.5066 26.9999 21 21.1796 21 13.9999C24.5 4.5 29.5 1 39 1.50001C49.4934 1.50001 58 7.32031 58 14.5Z" fill="url(#paint0_linear_22_147)"/>
<path d="M58.8212 20.8079C58.971 20.991 59.0043 23.4877 58.971 30.5948L58.9706 30.6567C58.921 39.9995 58.9202 40.1501 58.5549 40.7978C58.1055 41.6467 57.6061 42.1127 56.6741 42.5288C55.975 42.8451 55.5922 42.8784 51.5809 42.8784C50.1961 42.8784 49.2516 42.8802 48.5945 42.8947C47.4604 42.9049 46.1779 42.9314 45.1061 42.9535C43.8094 42.9802 42.8208 43.0006 42.776 42.9782C42.6262 42.9283 38.3653 42.8784 33.322 42.8784C26.0817 42.8617 24.0012 42.8118 23.5018 42.6453C22.5531 42.2958 21.8041 41.6467 21.4046 40.8145C21.0551 40.0655 21.0551 39.9157 21.0551 30.4284C21.0551 25.1355 21.1051 20.7414 21.1716 20.6914C21.2216 20.6249 29.6769 20.5749 39.9465 20.5749C55.8085 20.5749 58.6547 20.6082 58.8212 20.8079Z" fill="url(#paint1_linear_22_147)"/>
<path fill-rule="evenodd" clip-rule="evenodd" d="M32.0404 1.58369C33.605 0.901276 35.6356 0.335373 37.2834 0.102348C38.7314 -0.114029 42.5763 0.0357742 43.9911 0.335373C48.1521 1.23417 51.6807 3.21484 54.6102 6.2774C56.1248 7.87527 57.0069 9.12359 57.9224 10.9212C59.0542 13.1848 59.6367 15.0157 59.9863 17.4291C60.1028 18.2946 60.2526 18.6442 60.6521 19.0769C60.9849 19.4431 61.218 19.9424 61.3345 20.525L61.5176 21.4071H62.6327C64.0974 21.4238 64.9962 21.8232 65.6121 22.7553L66.0781 23.471V26.7167C66.0781 30.4617 65.9616 30.9111 64.7799 31.6933C64.2306 32.0595 63.8811 32.1594 62.7992 32.2093L61.5009 32.2593V35.6214C61.5009 37.4523 61.4177 39.4496 61.3345 40.0322C61.1347 41.397 60.469 42.7119 59.5036 43.6107C58.5049 44.5428 57.6394 44.9755 56.2912 45.2419C55.3259 45.4249 55.1927 45.4915 54.8765 46.0574C53.6614 48.1546 51.1981 50.5181 48.6515 51.9828L47.3366 52.7485L47.3865 54.7624L47.4364 56.7598L48.5849 56.9928L49.7334 57.2258L61.4011 45.5747C72.3603 34.6305 73.327 33.6518 74.3676 33.5656C74.4839 33.556 74.601 33.5575 74.7332 33.5575C75.4655 33.5742 76.4808 34.2732 78.0953 35.9044C79.843 37.6853 80.1426 38.1514 80.1426 39.15C80.1426 40.1487 79.7431 40.7312 77.6626 42.7951C76.5474 43.8937 75.6486 44.859 75.6486 44.9589C75.6486 45.0588 76.148 45.6247 76.7472 46.2072C77.3464 46.8064 77.9455 47.5221 78.0787 47.8217C78.395 48.5374 78.3783 49.6027 78.0454 50.2518C77.8956 50.5514 75.1992 53.381 72.0368 56.5434L66.3111 62.3023L67.2432 62.5021C68.8744 62.8682 70.7385 63.9335 72.0701 65.2484C73.385 66.5466 74.2505 67.9614 74.8331 69.759C75.1826 70.8742 75.2159 71.2237 75.2824 77.2989C75.3157 80.8109 75.2991 84.5725 75.2492 84.8055C74.9995 85.8042 74.0508 85.438 73.2518 84.8055L72.8191 84.4726V78.5306C72.8191 75.2683 72.7359 72.1059 72.6526 71.5067C72.4363 70.2084 71.5874 68.3609 70.7718 67.4121C69.6733 66.1472 67.8924 65.1652 66.0448 64.7657L65.4956 64.6492V74.3362C65.4956 82.4919 65.4623 84.0731 65.2459 84.4726C65.1814 84.6016 65.1074 84.7127 65.0256 84.8055C64.6218 85.2633 64.0267 85.276 63.4317 84.8055L62.9989 84.4726V74.0865C62.9989 65.8143 62.949 63.6838 62.7825 63.5507C62.4829 63.301 59.6201 62.6685 59.4703 62.8183C59.4037 62.8849 59.3205 67.795 59.3039 73.737L59.2539 84.5225L58.8965 84.8055L58.8545 84.8388C58.3551 85.2549 57.8225 85.2383 57.2733 84.8055L56.8405 84.4726V73.6871V62.9015L55.1761 62.5686L53.5116 62.2358V67.7117C53.5116 72.4554 53.4783 73.2876 53.2453 73.7703C52.9124 74.4527 52.1801 74.8855 51.3479 74.8688C50.5156 74.8688 41.9271 70.6079 41.4611 69.9587C41.1116 69.4927 41.0117 68.5273 41.2447 67.8782C41.3779 67.512 41.3612 67.512 39.9631 67.512H38.5483L38.7314 68.028C38.9645 68.7104 38.798 69.6258 38.332 70.1418C37.9824 70.5246 30.0098 74.5359 29.0111 74.8355C28.3453 75.0353 27.4632 74.7357 26.9805 74.1531L26.5478 73.6371V67.9947V62.3523L26.0984 62.3689C25.8321 62.3689 25.0831 62.5021 24.4173 62.6519L23.2022 62.9348L23.2189 73.3542C23.2189 80.2782 23.169 83.94 23.0524 84.2562C22.9675 84.4788 22.8471 84.663 22.7039 84.8055C22.2583 85.249 21.5923 85.2883 21.0884 84.8221L21.071 84.8055L20.7222 84.4726V73.8702C20.7222 65.6312 20.6723 63.1845 20.5225 62.9681C20.3228 62.7018 20.2063 62.7184 18.7249 63.068L17.1437 63.4508L17.0605 73.8369C17.0105 79.5625 16.9107 84.3727 16.8274 84.5392C16.7794 84.6404 16.719 84.7294 16.6487 84.8055C16.2573 85.2301 15.5611 85.2571 14.9966 84.8055L14.5638 84.4726V74.5692C14.5638 69.1265 14.4972 64.6825 14.4307 64.6825C14.3641 64.6825 13.8648 64.799 13.3155 64.9321C10.5525 65.6645 8.28889 67.8116 7.50661 70.4914C7.29023 71.257 7.2403 72.4221 7.2403 77.6984C7.2403 82.908 7.19036 84.0898 6.99063 84.4726C6.92612 84.6016 6.88145 84.7127 6.84836 84.8055C6.68509 85.2633 6.80344 85.276 6.20835 84.8055L4.74364 84.4726V77.8482C4.74364 70.6578 4.77693 70.2583 5.72566 68.261C7.19036 65.1319 9.87011 63.1013 13.5485 62.319C14.7635 62.0527 15.2795 61.8529 15.6956 61.5034C15.9952 61.2371 16.3448 61.0207 16.4779 61.0207C16.9772 61.0207 16.6943 60.6878 15.3627 59.6392C12.217 57.2092 9.52057 55.6446 5.35948 53.847C2.14712 52.4655 1.23168 51.7831 0.466042 50.2352C0.0665775 49.4196 0 49.0867 0 47.8717C0 46.6899 0.0665774 46.3071 0.432753 45.5415C0.682419 45.0421 1.09853 44.393 1.38148 44.0934C2.2137 43.1946 10.436 37.1693 11.1351 36.9197C11.8841 36.67 12.7163 36.7699 13.4486 37.186C13.7316 37.3524 17.1104 41.7133 21.4046 47.4722L28.878 57.4588L30.7588 57.1093L32.623 56.7598L32.6729 54.7458L32.7228 52.7318L31.8407 52.2824C29.4439 51.0341 26.8973 48.7871 25.4659 46.6566C24.9755 45.9308 24.774 45.6327 24.4938 45.4728C24.2984 45.3614 24.0648 45.3171 23.6683 45.2419C21.6377 44.859 19.9399 43.5608 19.0911 41.7465C18.6421 40.7987 18.6417 40.7646 18.5919 36.5149L18.5918 36.5036L18.5418 32.226H17.3934C16.0618 32.226 15.4959 32.0429 14.8468 31.427C13.948 30.5782 13.898 30.3452 13.898 26.7999C13.898 23.6042 13.9147 23.5043 14.3142 22.8053C14.8801 21.8232 15.7955 21.4071 17.3601 21.4071H18.5585V20.9244C18.5585 20.2254 18.8414 19.5762 19.374 18.9937C19.7569 18.5942 19.8734 18.278 19.9566 17.4791C20.2229 15.049 21.388 11.7701 22.8028 9.48977C24.2175 7.24278 24.9333 6.79338 25.7988 7.67553C26.398 8.25808 26.3147 8.77406 25.4492 10.039C24.0345 12.1196 23.0691 14.3666 22.6197 16.7134C22.4865 17.3958 22.3867 17.9784 22.3867 18.0117C22.3867 18.045 30.2927 18.0783 39.9631 18.0783H57.5562L57.4397 17.1961C57.2733 15.9811 56.2746 13.035 55.5589 11.7534C50.965 3.348 40.6788 0.0690613 32.1569 4.28008C31.4412 4.64626 30.5258 5.16223 30.1263 5.42854C29.2608 6.02774 28.6283 6.06103 28.0957 5.5617C27.6962 5.17888 27.5964 4.61297 27.8793 4.09699C28.1123 3.6476 30.3094 2.33269 32.0404 1.58369ZM58.971 30.5948C59.0043 23.4877 58.971 20.991 58.8212 20.8079C58.6547 20.6082 55.8085 20.5749 39.9465 20.5749C29.6769 20.5749 21.2216 20.6249 21.1716 20.6914C21.1051 20.7414 21.0551 25.1355 21.0551 30.4284C21.0551 39.9157 21.0551 40.0655 21.4046 40.8145C21.8041 41.6467 22.5531 42.2958 23.5018 42.6453C24.0012 42.8118 26.0817 42.8617 33.322 42.8784C38.3653 42.8784 42.6262 42.9283 42.776 42.9782C42.8208 43.0006 43.8094 42.9802 45.1061 42.9535C46.1779 42.9314 47.4604 42.9049 48.5945 42.8947C49.2516 42.8802 50.1961 42.8784 51.5809 42.8784C55.5922 42.8784 55.975 42.8451 56.6741 42.5288C57.6061 42.1127 58.1055 41.6467 58.5549 40.7978C58.9202 40.1501 58.921 39.9995 58.9706 30.6567L58.971 30.5948ZM50.9996 45.4132L52.3965 45.4582L51.0982 46.8397C49.5336 48.5042 48.2021 49.4862 46.3213 50.3517C43.7913 51.5334 41.1116 51.9828 38.3819 51.6832C34.6536 51.2671 31.3746 49.6193 28.8613 46.8896C28.2288 46.2072 27.7129 45.5914 27.7129 45.5082C27.7129 45.4416 31.0084 45.375 35.0364 45.375C36.6825 45.375 38.9708 45.389 41.3215 45.4034C45.3164 45.4278 49.4912 45.4534 50.9996 45.4132ZM50.9996 45.4132L49.8166 45.375C47.5696 45.3084 47.1701 45.2419 46.8705 44.9755C46.4045 44.5428 46.4045 43.6606 46.8872 43.2112C47.1194 43.0011 47.2929 42.9232 48.5945 42.8947C50.1635 42.8805 51.4487 42.8975 51.5 43C51.8162 43.6158 52.1967 45.0921 51.5809 45.375C51.5456 45.3916 51.3408 45.4041 50.9996 45.4132ZM18.5585 29.746V26.8166V23.9038H17.5598C16.894 23.9038 16.5279 23.9704 16.4613 24.1202C16.428 24.2367 16.4113 25.5349 16.428 26.983L16.4779 29.6461L17.5265 29.696L18.5585 29.746ZM63.465 29.5296C63.6813 29.3132 63.7646 24.6861 63.5648 24.1701C63.4816 23.9704 63.2153 23.9038 62.4829 23.9038H61.5009V26.8166V29.7293H62.3831C62.8658 29.7293 63.3484 29.6461 63.465 29.5296ZM77.646 39.1334C77.646 39.0502 76.9968 38.3178 76.1979 37.5189C75.399 36.7033 74.6999 36.0542 74.65 36.0542C74.6 36.0542 69.64 40.9809 63.6314 46.9895L52.6961 57.9415L53.0123 58.3576C53.1954 58.5906 53.3785 58.9735 53.4284 59.2231C53.495 59.4728 53.6947 59.7225 53.8778 59.789C54.1608 59.8723 54.71 59.4062 56.9071 57.2092C59.7699 54.3463 60.0362 54.1799 60.8518 54.8457C61.1181 55.062 61.2346 55.3283 61.2346 55.7611C61.2346 56.327 61.0682 56.5434 59.1874 58.4242L57.1401 60.4714L57.6727 60.5547C57.9723 60.6046 58.5216 60.5214 58.9044 60.4049C59.5202 60.1885 59.7533 60.1885 61.3345 60.5214C62.2999 60.7378 63.2652 60.9708 63.4816 61.054C63.8644 61.1872 64.3138 60.7877 69.7732 55.3283C73.0022 52.0993 75.6986 49.3197 75.7485 49.1366C75.8317 48.9036 75.4489 48.4376 74.2172 47.1892C73.3184 46.2738 72.4696 45.5415 72.3198 45.5415C72.1866 45.5415 70.4556 47.156 68.4916 49.1366C66.5275 51.1007 64.7133 52.8317 64.4636 52.9482C63.6647 53.381 62.666 52.7152 62.666 51.7498C62.666 51.4003 70.3724 43.6274 71.0548 43.2612C71.421 43.0781 71.8537 43.0282 72.6693 43.0781L73.7845 43.1613L75.7152 41.2306C76.7804 40.1653 77.646 39.2166 77.646 39.1334ZM26.581 59.1732C26.6476 58.7238 25.9319 57.7085 19.4073 48.9868C15.4127 43.6606 12.0838 39.2998 11.9839 39.2665C11.8009 39.2332 4.21102 44.859 3.36216 45.658C2.39679 46.5734 2.16377 47.8717 2.72968 49.1366C3.14578 50.0521 3.77827 50.4848 6.24164 51.5334C11.2017 53.6306 14.8468 55.8443 18.4253 58.9402C19.2242 59.6226 20.0065 60.1885 20.173 60.1885C20.3394 60.2051 20.7722 60.305 21.1217 60.4382C21.7042 60.6379 21.9706 60.6212 23.7848 60.2551C24.9 60.0387 25.9652 59.8223 26.1483 59.7724C26.398 59.7225 26.5311 59.5394 26.581 59.1732ZM40.0297 54.2298C38.7647 54.2298 37.4665 54.1299 36.7008 53.9635C36.0184 53.8137 35.4026 53.6972 35.336 53.6972C35.1529 53.6972 35.1695 57.4255 35.3526 57.6086C35.4358 57.7085 35.9685 59.2398 36.5344 61.0207C37.0836 62.8017 37.6163 64.3329 37.7161 64.4494C37.9991 64.799 39.3473 65.0653 40.4125 64.9821C42.1102 64.8323 42.2767 64.6991 42.8093 62.9515C43.059 62.1192 43.5916 60.5047 43.9911 59.3563C44.6568 57.5088 44.74 57.076 44.8066 55.4781C44.8399 54.4961 44.8233 53.6972 44.74 53.6972C44.6735 53.6972 44.041 53.8137 43.3586 53.9635C42.5929 54.1299 41.2947 54.2298 40.0297 54.2298ZM34.9589 64.338C34.5827 63.1464 34.1872 61.8936 33.9545 61.1372C33.4885 59.6559 33.2721 59.1898 33.0723 59.2065C32.8227 59.2231 30.376 59.7058 29.4272 59.9388L29.0444 60.0221V66.0972V72.1724L32.5897 70.4081C34.5204 69.4428 36.1516 68.6105 36.1848 68.5773C36.2348 68.5273 35.8852 67.279 35.4192 65.7976C35.279 65.352 35.1207 64.8507 34.9589 64.338ZM50.965 60.0886C50.9318 60.0553 49.983 59.839 48.8512 59.6059C47.736 59.3729 46.754 59.1898 46.7041 59.1898C46.5876 59.1898 43.6415 68.5107 43.7414 68.6105C43.7747 68.6438 45.4058 69.4428 47.3699 70.3915L50.9317 72.1225L50.9817 66.1305C50.9983 62.8349 50.9983 60.1053 50.965 60.0886Z" fill="white"/>
<path d="M46.8705 44.9755C46.4045 44.5428 46.4045 43.6606 46.8872 43.2112C47.1194 43.0011 47.2929 42.9232 48.5945 42.8947C50.1635 42.8805 51.4487 42.8975 51.5 43C51.8162 43.6158 52.1967 45.0921 51.5809 45.375C51.5456 45.3916 51.3408 45.4041 50.9996 45.4132L49.8166 45.375C47.5696 45.3084 47.1701 45.2419 46.8705 44.9755Z" fill="white"/>
<path d="M35.4192 65.7976C35.8852 67.279 36.2348 68.5273 36.1848 68.5773C36.1516 68.6105 34.5204 69.4428 32.5897 70.4081L29.0444 72.1724V66.0972V60.0221L29.4272 59.9388C30.376 59.7058 32.8227 59.2231 33.0723 59.2065C33.2721 59.1898 33.4885 59.6559 33.9545 61.1372C34.1872 61.8936 34.5827 63.1464 34.9589 64.338C35.1207 64.8507 35.279 65.352 35.4192 65.7976Z" fill="url(#paint2_linear_22_147)"/>
<path d="M48.8512 59.6059C49.983 59.839 50.9318 60.0553 50.965 60.0886C50.9983 60.1053 50.9983 62.8349 50.9817 66.1305L50.9317 72.1225L47.3699 70.3915C45.4058 69.4428 43.7747 68.6438 43.7414 68.6105C43.6415 68.5107 46.5876 59.1898 46.7041 59.1898C46.754 59.1898 47.736 59.3729 48.8512 59.6059Z" fill="url(#paint3_linear_22_147)"/>
<path d="M36.7008 53.9635C37.4665 54.1299 38.7647 54.2298 40.0297 54.2298C41.2947 54.2298 42.5929 54.1299 43.3586 53.9635C44.041 53.8137 44.6735 53.6972 44.74 53.6972C44.8233 53.6972 44.8399 54.4961 44.8066 55.4781C44.74 57.076 44.6568 57.5088 43.9911 59.3563C43.5916 60.5047 43.059 62.1192 42.8093 62.9515C42.2767 64.6991 42.1102 64.8323 40.4125 64.9821C39.3473 65.0653 37.9991 64.799 37.7161 64.4494C37.6163 64.3329 37.0836 62.8017 36.5344 61.0207C35.9685 59.2398 35.4358 57.7085 35.3526 57.6086C35.1695 57.4255 35.1529 53.6972 35.336 53.6972C35.4026 53.6972 36.0184 53.8137 36.7008 53.9635Z" fill="url(#paint4_linear_22_147)"/>
<path d="M76.1979 37.5189C76.9968 38.3178 77.646 39.0502 77.646 39.1334C77.646 39.2166 76.7804 40.1653 75.7152 41.2306L73.7845 43.1613L72.6693 43.0781C71.8537 43.0282 71.421 43.0781 71.0548 43.2612C70.3724 43.6274 62.666 51.4003 62.666 51.7498C62.666 52.7152 63.6647 53.381 64.4636 52.9482C64.7133 52.8317 66.5275 51.1007 68.4916 49.1366C70.4556 47.156 72.1866 45.5415 72.3198 45.5415C72.4696 45.5415 73.3184 46.2738 74.2172 47.1892C75.4489 48.4376 75.8317 48.9036 75.7485 49.1366C75.6986 49.3197 73.0022 52.0993 69.7732 55.3283C64.3138 60.7877 63.8644 61.1872 63.4816 61.054C63.2652 60.9708 62.2999 60.7378 61.3345 60.5214C59.7533 60.1885 59.5202 60.1885 58.9044 60.4049C58.5216 60.5214 57.9723 60.6046 57.6727 60.5547L57.1401 60.4714L59.1874 58.4242C61.0682 56.5434 61.2346 56.327 61.2346 55.7611C61.2346 55.3283 61.1181 55.062 60.8518 54.8457C60.0362 54.1799 59.7699 54.3463 56.9071 57.2092C54.71 59.4062 54.1608 59.8723 53.8778 59.789C53.6947 59.7225 53.495 59.4728 53.4284 59.2231C53.3785 58.9735 53.1954 58.5906 53.0123 58.3576L52.6961 57.9415L63.6314 46.9895C69.64 40.9809 74.6 36.0542 74.65 36.0542C74.6999 36.0542 75.399 36.7033 76.1979 37.5189Z" fill="url(#paint5_linear_22_147)"/>
<path d="M19.4073 48.9868C25.9319 57.7085 26.6476 58.7238 26.581 59.1732C26.5311 59.5394 26.398 59.7225 26.1483 59.7724C25.9652 59.8223 24.9 60.0387 23.7848 60.2551C21.9706 60.6212 21.7042 60.6379 21.1217 60.4382C20.7722 60.305 20.3394 60.2051 20.173 60.1885C20.0065 60.1885 19.2242 59.6226 18.4253 58.9402C14.8468 55.8443 11.2017 53.6306 6.24164 51.5334C3.77827 50.4848 3.14578 50.0521 2.72968 49.1366C2.16377 47.8717 2.39679 46.5734 3.36216 45.658C4.21102 44.859 11.8009 39.2332 11.9839 39.2665C12.0838 39.2998 15.4127 43.6606 19.4073 48.9868Z" fill="url(#paint6_linear_22_147)"/>
<path d="M4.74364 84.4726L6.20835 84.8055C6.80344 85.276 6.68509 85.2633 6.84836 84.8055H14.9966C15.5611 85.2571 16.2573 85.2301 16.6487 84.8055H21.071L21.0884 84.8221C21.5923 85.2883 22.2583 85.249 22.7039 84.8055H57.2733C57.8225 85.2383 58.3551 85.2549 58.8545 84.8388L58.8965 84.8055H63.4317C64.0267 85.276 64.6218 85.2633 65.0256 84.8055H73.2518C74.0508 85.438 74.9995 85.8042 75.2492 84.8055V86.1182H4.74364V84.4726Z" fill="white"/>
<path d="M23.0524 84.2562C23.169 83.94 23.2189 80.2782 23.2189 73.3542L23.2022 62.9348L24.4173 62.6519C25.0831 62.5021 25.8321 62.3689 26.0984 62.3689L26.5478 62.3523V67.9947V73.6371L26.9805 74.1531C27.4632 74.7357 28.3453 75.0353 29.0111 74.8355C30.0098 74.5359 37.9824 70.5246 38.332 70.1418C38.798 69.6258 38.9645 68.7104 38.7314 68.028L38.5483 67.512H39.9631C41.3612 67.512 41.3779 67.512 41.2447 67.8782C41.0117 68.5273 41.1116 69.4927 41.4611 69.9587C41.9271 70.6079 50.5156 74.8688 51.3479 74.8688C52.1801 74.8855 52.9124 74.4527 53.2453 73.7703C53.4783 73.2876 53.5116 72.4554 53.5116 67.7117V62.2358L55.1761 62.5686L56.8405 62.9015V73.6871V84.4726L57.2733 84.8055H22.7039C22.8471 84.663 22.9675 84.4788 23.0524 84.2562Z" fill="url(#paint7_linear_22_147)"/>
<path d="M65.2459 84.4726C65.4623 84.0731 65.4956 82.4919 65.4956 74.3362V64.6492L66.0448 64.7657C67.8924 65.1652 69.6733 66.1472 70.7718 67.4121C71.5874 68.3609 72.4363 70.2084 72.6526 71.5067C72.7359 72.1059 72.8191 75.2683 72.8191 78.5306V84.4726L73.2518 84.8055H65.0256C65.1074 84.7127 65.1814 84.6016 65.2459 84.4726Z" fill="url(#paint8_linear_22_147)"/>
<path d="M59.2539 84.5225L59.3039 73.737C59.3205 67.795 59.4037 62.8849 59.4703 62.8183C59.6201 62.6685 62.4829 63.301 62.7825 63.5507C62.949 63.6838 62.9989 65.8143 62.9989 74.0865V84.4726L63.4317 84.8055H58.8965L59.2539 84.5225Z" fill="url(#paint9_linear_22_147)"/>
<path d="M16.8274 84.5392C16.9107 84.3727 17.0105 79.5625 17.0605 73.8369L17.1437 63.4508L18.7249 63.068C20.2063 62.7184 20.3228 62.7018 20.5225 62.9681C20.6723 63.1845 20.7222 65.6312 20.7222 73.8702V84.4726L21.071 84.8055H16.6487C16.719 84.7294 16.7794 84.6404 16.8274 84.5392Z" fill="url(#paint10_linear_22_147)"/>
<path d="M6.99063 84.4726C7.19036 84.0898 7.2403 82.908 7.2403 77.6984C7.2403 72.4221 7.29023 71.257 7.50661 70.4914C8.28889 67.8116 10.5525 65.6645 13.3155 64.9321C13.8648 64.799 14.3641 64.6825 14.4307 64.6825C14.4972 64.6825 14.5638 69.1265 14.5638 74.5692V84.4726L14.9966 84.8055H6.84836C6.88145 84.7127 6.92612 84.6016 6.99063 84.4726Z" fill="url(#paint11_linear_22_147)"/>
<path d="M52.3965 45.4582L51.0982 46.8397C49.5336 48.5042 48.2021 49.4862 46.3213 50.3517C43.7913 51.5334 41.1116 51.9828 38.3819 51.6832C34.6536 51.2671 31.3746 49.6193 28.8613 46.8896C28.2288 46.2072 27.7129 45.5914 27.7129 45.5082C27.7129 45.4416 31.0084 45.375 35.0364 45.375C36.6825 45.375 38.9708 45.389 41.3215 45.4034C45.3164 45.4278 49.4912 45.4534 50.9996 45.4132L52.3965 45.4582Z" fill="url(#paint12_linear_22_147)"/>
<path d="M63.5648 24.1701C63.7646 24.6861 63.6813 29.3132 63.465 29.5296C63.3484 29.6461 62.8658 29.7293 62.3831 29.7293H61.5009V26.8166V23.9038H62.4829C63.2153 23.9038 63.4816 23.9704 63.5648 24.1701Z" fill="url(#paint13_linear_22_147)"/>
<path d="M18.5585 26.8166V29.746L17.5265 29.696L16.4779 29.6461L16.428 26.983C16.4113 25.5349 16.428 24.2367 16.4613 24.1202C16.5279 23.9704 16.894 23.9038 17.5598 23.9038H18.5585V26.8166Z" fill="url(#paint14_linear_22_147)"/>
<path d="M10.5689 42.7119C9.50367 43.7771 11.0017 45.4915 12.1501 44.4928C13.0489 43.7272 12.5995 42.379 11.4511 42.379C11.1182 42.379 10.7686 42.5121 10.5689 42.7119Z" fill="white"/>
<path d="M26.4977 24.6527C25.6988 24.9357 25.083 25.4849 24.7834 26.184C24.4505 26.9497 24.4505 33.674 24.7834 34.4396C25.0663 35.1387 25.8819 35.8211 26.6808 36.0541C27.5963 36.3038 52.7625 36.2539 53.4283 36.0042C54.2106 35.7046 54.6101 35.3551 55.0428 34.6393C55.409 33.9902 55.4256 33.8571 55.4256 30.3118C55.4256 27.166 55.3923 26.5835 55.1427 26.1341C54.7598 25.4184 53.9609 24.7859 53.2119 24.5695C52.8125 24.4696 48.1354 24.4031 39.8631 24.4031C29.5104 24.4197 27.0137 24.453 26.4977 24.6527ZM52.8125 27.0995C53.1121 27.3991 53.0954 33.2912 52.7792 33.5408C52.6294 33.674 49.1008 33.7073 39.8465 33.6906L27.1302 33.6407L27.0803 30.4117C27.047 27.9317 27.0969 27.1494 27.2467 27.0329C27.3632 26.9663 33.1222 26.8997 40.0296 26.8997C49.6001 26.8997 52.6627 26.9497 52.8125 27.0995Z" fill="white"/>
<defs>
<linearGradient id="paint0_linear_22_147" x1="21" y1="14.4233" x2="58.08" y2="14.4233" gradientUnits="userSpaceOnUse">
<stop stop-color="#C74A54"/>
<stop offset="1" stop-color="#FF3F4E"/>
</linearGradient>
<linearGradient id="paint1_linear_22_147" x1="2.51422e-07" y1="42.3966" x2="80.1426" y2="42.3966" gradientUnits="userSpaceOnUse">
<stop stop-color="#C74A54"/>
<stop offset="1" stop-color="#FF3F4E"/>
</linearGradient>
<linearGradient id="paint2_linear_22_147" x1="2.51422e-07" y1="42.3966" x2="80.1426" y2="42.3966" gradientUnits="userSpaceOnUse">
<stop stop-color="#C74A54"/>
<stop offset="1" stop-color="#FF3F4E"/>
</linearGradient>
<linearGradient id="paint3_linear_22_147" x1="2.51422e-07" y1="42.3966" x2="80.1426" y2="42.3966" gradientUnits="userSpaceOnUse">
<stop stop-color="#C74A54"/>
<stop offset="1" stop-color="#FF3F4E"/>
</linearGradient>
<linearGradient id="paint4_linear_22_147" x1="2.51422e-07" y1="42.3966" x2="80.1426" y2="42.3966" gradientUnits="userSpaceOnUse">
<stop stop-color="#C74A54"/>
<stop offset="1" stop-color="#FF3F4E"/>
</linearGradient>
<linearGradient id="paint5_linear_22_147" x1="2.51422e-07" y1="42.3966" x2="80.1426" y2="42.3966" gradientUnits="userSpaceOnUse">
<stop stop-color="#C74A54"/>
<stop offset="1" stop-color="#FF3F4E"/>
</linearGradient>
<linearGradient id="paint6_linear_22_147" x1="2.51422e-07" y1="42.3966" x2="80.1426" y2="42.3966" gradientUnits="userSpaceOnUse">
<stop stop-color="#C74A54"/>
<stop offset="1" stop-color="#FF3F4E"/>
</linearGradient>
<linearGradient id="paint7_linear_22_147" x1="2.51422e-07" y1="42.3966" x2="80.1426" y2="42.3966" gradientUnits="userSpaceOnUse">
<stop stop-color="#C74A54"/>
<stop offset="1" stop-color="#FF3F4E"/>
</linearGradient>
<linearGradient id="paint8_linear_22_147" x1="2.51422e-07" y1="42.3966" x2="80.1426" y2="42.3966" gradientUnits="userSpaceOnUse">
<stop stop-color="#C74A54"/>
<stop offset="1" stop-color="#FF3F4E"/>
</linearGradient>
<linearGradient id="paint9_linear_22_147" x1="2.51422e-07" y1="42.3966" x2="80.1426" y2="42.3966" gradientUnits="userSpaceOnUse">
<stop stop-color="#C74A54"/>
<stop offset="1" stop-color="#FF3F4E"/>
</linearGradient>
<linearGradient id="paint10_linear_22_147" x1="2.51422e-07" y1="42.3966" x2="80.1426" y2="42.3966" gradientUnits="userSpaceOnUse">
<stop stop-color="#C74A54"/>
<stop offset="1" stop-color="#FF3F4E"/>
</linearGradient>
<linearGradient id="paint11_linear_22_147" x1="2.51422e-07" y1="42.3966" x2="80.1426" y2="42.3966" gradientUnits="userSpaceOnUse">
<stop stop-color="#C74A54"/>
<stop offset="1" stop-color="#FF3F4E"/>
</linearGradient>
<linearGradient id="paint12_linear_22_147" x1="2.51422e-07" y1="42.3966" x2="80.1426" y2="42.3966" gradientUnits="userSpaceOnUse">
<stop stop-color="#C74A54"/>
<stop offset="1" stop-color="#FF3F4E"/>
</linearGradient>
<linearGradient id="paint13_linear_22_147" x1="2.51422e-07" y1="42.3966" x2="80.1426" y2="42.3966" gradientUnits="userSpaceOnUse">
<stop stop-color="#C74A54"/>
<stop offset="1" stop-color="#FF3F4E"/>
</linearGradient>
<linearGradient id="paint14_linear_22_147" x1="2.51422e-07" y1="42.3966" x2="80.1426" y2="42.3966" gradientUnits="userSpaceOnUse">
<stop stop-color="#C74A54"/>
<stop offset="1" stop-color="#FF3F4E"/>
</linearGradient>
</defs>
</svg>
