<svg width="102" height="81" viewBox="0 0 102 81" fill="none" xmlns="http://www.w3.org/2000/svg">
<path d="M3.72578 77.3391L3.69277 77.305L3.65819 77.2725C3.13007 76.7757 2.71109 76.1777 2.42621 75.5158C2.14148 74.8543 1.99664 74.1423 2.00008 73.4232V73.4137V7.58665H2.0001L2.00006 7.57714C1.99664 6.85803 2.14147 6.14597 2.42621 5.48446C2.71118 4.8224 3.13024 4.22418 3.65819 3.72754L3.69278 3.695L3.72578 3.66086C4.23152 3.1377 4.83913 2.7205 5.51301 2.4348C6.18666 2.1492 6.91225 2.00112 7.64553 2H94.3343C95.8305 2.03406 97.2536 2.63933 98.3079 3.68563C99.3616 4.73143 99.9659 6.13669 100 7.60818V73.3921C99.9659 74.8636 99.3616 76.2689 98.3079 77.3147C97.2538 78.3608 95.8307 78.9659 94.3344 79H7.6467C6.9126 78.999 6.18663 78.8511 5.51301 78.5655C4.83945 78.28 4.23176 77.8626 3.72578 77.3391ZM49.9737 44.4084L51.0651 45.1188L52.1563 44.4081L95.499 16.1782L96.4074 15.5865V14.5024V7.53499V3.88958L93.3329 5.84819L51.0645 32.7747L8.77023 5.84789L5.69613 3.89075V7.53499V14.5024V15.5869L6.60506 16.1785L49.9737 44.4084Z" fill="white" stroke="url(#paint0_linear_1426_1326)" stroke-width="4"/>
<defs>
<linearGradient id="paint0_linear_1426_1326" x1="0" y1="0" x2="115.874" y2="46.2161" gradientUnits="userSpaceOnUse">
<stop stop-color="white"/>
<stop offset="1" stop-color="white" stop-opacity="0"/>
</linearGradient>
</defs>
</svg>
