<svg width="38" height="38" viewBox="0 0 38 38" fill="none" xmlns="http://www.w3.org/2000/svg">
<path d="M17.9609 0.044529C15.5711 0.341404 13.5746 1.31367 11.9121 2.99844C10.4352 4.49023 9.58906 6.07852 9.15117 8.16406C8.97305 9.03984 8.97305 10.9992 9.15117 11.875C9.58906 13.9605 10.4426 15.5562 11.9121 17.0406C13.4039 18.5473 15.0367 19.4305 17.1445 19.8684C18.0129 20.0465 19.9648 20.0465 20.8703 19.8684C22.8742 19.4676 24.5367 18.577 26.0211 17.1074C27.5203 15.6305 28.4109 13.9828 28.8488 11.875C29.027 10.9992 29.027 9.03984 28.8488 8.16406C28.5594 6.79101 28.0324 5.52187 27.2754 4.37891C26.8078 3.67383 25.3605 2.21914 24.6703 1.76641C23.4754 0.972263 22.184 0.430468 20.9148 0.185545C20.3137 0.0667953 18.4805 -0.0222683 17.9609 0.044529ZM20.7812 2.43437C22.2508 2.82031 23.4902 3.51797 24.4996 4.51992C25.5016 5.52187 26.177 6.72422 26.5926 8.23828C26.8078 9.04727 26.8078 10.9918 26.5926 11.8008C26.177 13.3148 25.5016 14.5172 24.4996 15.5191C23.4977 16.5211 22.2953 17.1965 20.7812 17.6121C19.9723 17.8273 18.0277 17.8273 17.2188 17.6121C15.7047 17.1965 14.5023 16.5211 13.5004 15.5191C10.6355 12.6469 10.45 8.09726 13.0773 4.97266C14.2129 3.62187 16.0758 2.57539 17.8125 2.3082C18.5398 2.19687 20.1207 2.26367 20.7812 2.43437Z" fill="url(#paint0_linear_23_28)"/>
<path d="M20.7812 2.43437C22.2508 2.82031 23.4902 3.51797 24.4996 4.51992C25.5016 5.52187 26.177 6.72422 26.5926 8.23828C26.8078 9.04727 26.8078 10.9918 26.5926 11.8008C26.177 13.3148 25.5016 14.5172 24.4996 15.5191C23.4977 16.5211 22.2953 17.1965 20.7812 17.6121C19.9723 17.8273 18.0277 17.8273 17.2188 17.6121C15.7047 17.1965 14.5023 16.5211 13.5004 15.5191C10.6355 12.6469 10.45 8.09726 13.0773 4.97266C14.2129 3.62187 16.0758 2.57539 17.8125 2.3082C18.5398 2.19687 20.1207 2.26367 20.7812 2.43437Z" fill="url(#paint1_linear_23_28)"/>
<path d="M15.0144 22.3844C10.8582 22.8891 7.11015 25.2418 4.69804 28.8711C3.28046 30.9937 2.47148 33.5023 2.33046 36.1816C2.28593 37.0055 2.29335 37.102 2.44179 37.3914C2.5457 37.5992 2.69414 37.7477 2.89453 37.8516C3.18398 38 3.29531 38 19 38C34.7047 38 34.816 38 35.1055 37.8516C35.3059 37.7477 35.4543 37.5992 35.5582 37.3914C35.7066 37.102 35.7141 37.0055 35.6695 36.1816C35.4766 32.5227 34.0812 29.3164 31.543 26.6891C29.1383 24.2027 26.0359 22.6887 22.6441 22.3398C21.5234 22.2285 16.0461 22.2582 15.0144 22.3844ZM22.5254 24.5664C27.4461 25.1305 31.5726 28.5965 32.9457 33.3316C33.1684 34.0812 33.3984 35.2465 33.3984 35.5953V35.7734H19H4.60156V35.5582C4.60156 35.1574 4.90585 33.7621 5.15078 32.9977C5.95976 30.5336 7.50351 28.4109 9.62617 26.8301C10.3832 26.266 12.0605 25.4051 13.0254 25.0934C13.7601 24.8484 14.6285 24.6629 15.4152 24.5738C16.1723 24.4848 21.7535 24.4848 22.5254 24.5664Z" fill="url(#paint2_linear_23_28)"/>
<path d="M22.5254 24.5664C27.4461 25.1305 31.5726 28.5965 32.9457 33.3316C33.1684 34.0812 33.3984 35.2465 33.3984 35.5953V35.7734H19H4.60156V35.5582C4.60156 35.1574 4.90585 33.7621 5.15078 32.9977C5.95976 30.5336 7.50351 28.4109 9.62617 26.8301C10.3832 26.266 12.0605 25.4051 13.0254 25.0934C13.7601 24.8484 14.6285 24.6629 15.4152 24.5738C16.1723 24.4848 21.7535 24.4848 22.5254 24.5664Z" fill="url(#paint3_linear_23_28)"/>
<defs>
<linearGradient id="paint0_linear_23_28" x1="9.01758" y1="9.8581" x2="28.9824" y2="9.8581" gradientUnits="userSpaceOnUse">
<stop stop-color="#65D6CB"/>
<stop offset="1" stop-color="#5FFFCF"/>
</linearGradient>
<linearGradient id="paint1_linear_23_28" x1="9.01758" y1="9.8581" x2="28.9824" y2="9.8581" gradientUnits="userSpaceOnUse">
<stop stop-color="#65D6CB"/>
<stop offset="1" stop-color="#5FFFCF"/>
</linearGradient>
<linearGradient id="paint2_linear_23_28" x1="2.30655" y1="30.0145" x2="35.6934" y2="30.0145" gradientUnits="userSpaceOnUse">
<stop stop-color="#65D6CB"/>
<stop offset="1" stop-color="#5FFFCF"/>
</linearGradient>
<linearGradient id="paint3_linear_23_28" x1="2.30655" y1="30.0145" x2="35.6934" y2="30.0145" gradientUnits="userSpaceOnUse">
<stop stop-color="#65D6CB"/>
<stop offset="1" stop-color="#5FFFCF"/>
</linearGradient>
</defs>
</svg>
