<svg width="25" height="29" viewBox="0 0 25 29" fill="none" xmlns="http://www.w3.org/2000/svg">
<path d="M7.11407 15.5753C6.94298 15.469 6.77847 15.3827 6.62054 15.2764C5.33566 14.4251 4.13656 13.4485 3.04073 12.3607C1.79149 11.0579 0.886431 9.45932 0.408607 7.71162C0.0453576 6.36279 -0.0770631 4.95948 0.0468186 3.56731C0.085844 2.79749 0.204809 2.03399 0.402021 1.2893C0.436054 1.16631 0.480201 1.04633 0.533755 0.930633C0.634818 0.658572 0.821382 0.427551 1.06503 0.272803C1.30868 0.118055 1.59585 0.0480912 1.88259 0.0738484C2.42837 0.124576 2.95868 0.285036 3.4422 0.545534C5.49871 1.52155 7.17817 3.15593 8.21952 5.19461C8.55587 5.88778 8.84181 6.60474 9.07499 7.33982C9.35794 8.16337 9.60794 9.00021 9.83825 9.83705C10.1526 10.9698 10.3858 12.124 10.5358 13.2906C10.5315 13.3437 10.5315 13.397 10.5358 13.45C11.1323 13.1777 11.7795 13.0367 12.4342 13.0367C13.0889 13.0367 13.7361 13.1777 14.3327 13.45C14.3656 13.2242 14.3852 13.0183 14.4181 12.7859C14.6318 11.3687 14.9597 9.97158 15.3986 8.6083C15.675 7.76482 15.9119 6.90138 16.2475 6.07783C17.2119 3.63667 19.0547 1.65355 21.4065 0.52559C21.8533 0.282706 22.3387 0.120873 22.841 0.0474184C23.0213 -0.00255973 23.2101 -0.0131916 23.3949 0.0162862C23.5796 0.0457639 23.7561 0.114626 23.9123 0.218321C24.0686 0.322017 24.2012 0.458205 24.3013 0.617689C24.4013 0.777174 24.4666 0.956276 24.4926 1.14321C24.6689 1.73826 24.7966 2.34689 24.8743 2.96298C25.0092 3.89758 25.0356 4.84485 24.9532 5.78564C24.754 7.84257 23.9805 9.80019 22.7225 11.431C21.9697 12.3953 21.0832 13.2453 20.0904 13.9548C19.3469 14.5193 18.577 15.0373 17.8137 15.5819L17.7676 15.6285L17.9452 15.8741C18.2612 16.3584 18.4491 16.9164 18.4913 17.4948C18.5253 17.8875 18.5824 18.2777 18.6624 18.6635C18.7409 19.0493 18.9311 19.4029 19.2086 19.6797C19.4455 19.9321 19.6759 20.1912 19.9259 20.4369C20.3818 20.8966 20.7259 21.4567 20.9314 22.0731C21.1369 22.6896 21.1983 23.3457 21.1104 23.99C21.0462 24.71 20.7891 25.3987 20.3667 25.9825C19.9658 26.6435 19.4041 27.19 18.7348 27.5699C17.5985 28.171 16.3746 28.5856 15.1091 28.7985C13.0359 29.1178 10.9227 29.0572 8.87096 28.6193C7.78429 28.3906 6.74911 27.9603 5.81777 27.3507C5.32125 27.0356 4.89124 26.6247 4.55247 26.1414C4.2137 25.6582 3.97286 25.1121 3.84367 24.5347C3.64824 23.8263 3.64333 23.0782 3.82953 22.3673C4.01574 21.6564 4.38626 21.0083 4.90301 20.4899C5.0741 20.3173 5.22545 20.1248 5.40312 19.9654C5.95654 19.4491 6.28525 18.7329 6.31772 17.9729C6.31772 17.7206 6.36386 17.4681 6.40334 17.2157C6.47644 16.6106 6.72355 16.0403 7.11407 15.5753V15.5753Z" fill="white"/>
</svg>
