<svg width="22" height="22" viewBox="0 0 22 22" fill="none" xmlns="http://www.w3.org/2000/svg">
<path d="M10.989 0C4.917 0 0 4.928 0 11C0 17.072 4.917 22 10.989 22C17.072 22 22 17.072 22 11C22 4.928 17.072 0 10.989 0ZM14.542 16.929L11 14.795L7.458 16.929C7.04 17.182 6.523 16.808 6.633 16.335L7.568 12.309L4.455 9.614C4.092 9.295 4.29 8.69 4.774 8.646L8.888 8.294L10.494 4.499C10.681 4.048 11.319 4.048 11.506 4.499L13.112 8.283L17.226 8.635C17.71 8.679 17.908 9.284 17.534 9.603L14.421 12.298L15.356 16.335C15.466 16.808 14.96 17.182 14.542 16.929Z" fill="white"/>
</svg>
