<svg width="43" height="37" viewBox="0 0 43 37" fill="none" xmlns="http://www.w3.org/2000/svg">
<path d="M31.1205 0.292171C30.8916 0.498466 30.7962 0.661783 30.7962 0.859484C30.7962 1.05718 30.8916 1.2119 31.1205 1.4268L31.4447 1.71905H33.3806H35.3261L30.6055 5.97388L25.8849 10.2287L23.9776 8.50959C22.0607 6.79046 22.0607 6.79046 21.6411 6.79046H21.212L12.4288 14.7156C6.32535 20.2168 3.6265 22.7182 3.59789 22.8643C3.50252 23.4574 3.88398 23.8958 4.5134 23.8958H4.9044L13.268 16.3574L21.6411 8.81044L23.5198 10.5038C25.408 12.1885 25.6751 12.369 26.1424 12.2487C26.2663 12.2143 28.6696 10.117 31.4924 7.58126L36.6135 2.96541L36.6231 4.38369C36.6231 6.04264 36.6994 6.33489 37.1953 6.56698C37.5958 6.76468 37.9487 6.7131 38.292 6.40366L38.5208 6.19736V3.39519C38.5208 1.63309 38.4827 0.53285 38.4255 0.421106C38.1871 0.0257072 37.9677 -8.01086e-05 34.6013 -8.01086e-05H31.4447L31.1205 0.292171Z" fill="url(#paint0_linear_23_4)"/>
<path d="M31.9141 10.7748C31.4102 10.9699 31.0154 11.3096 30.7719 11.7432L30.5703 12.1045V23.826V35.5547H28.2188H25.8672V29.1375C25.8672 24.9967 25.8336 22.6336 25.7832 22.4602C25.632 22.0121 25.1869 21.5352 24.6914 21.2895L24.2295 21.0654H21.542C18.9469 21.0654 18.8461 21.0727 18.5102 21.2244C18.0566 21.434 17.6535 21.7953 17.4352 22.1855C17.2588 22.5107 17.2588 22.5541 17.2336 29.0291L17.2084 35.5547H14.9072H12.6061L12.5809 32.1004C12.5557 28.6822 12.5557 28.6533 12.3625 28.292C12.0938 27.7934 11.6402 27.4176 11.1111 27.2441C10.6996 27.1141 10.4477 27.0996 8.23887 27.0996C5.57656 27.0996 5.34141 27.1285 4.76191 27.5404C4.59395 27.6633 4.35039 27.9162 4.21602 28.0969L3.98926 28.4365L3.96406 31.992L3.93887 35.5547H2.88906C1.51172 35.5547 1.17578 35.692 1.17578 36.2773C1.17578 36.5809 1.30176 36.7615 1.5957 36.8916C1.81406 36.9855 4.13203 37 21.5 37C38.868 37 41.1859 36.9855 41.4043 36.8916C41.6982 36.7615 41.8242 36.5809 41.8242 36.2773C41.8242 35.6992 41.4883 35.5547 40.1445 35.5547H39.1367V23.826V12.1045L38.9352 11.7432C38.6916 11.2879 38.3641 11.0061 37.835 10.7965C37.4234 10.6303 37.3647 10.623 34.8535 10.623C32.46 10.623 32.2668 10.6375 31.9141 10.7748ZM37.3059 12.1912C37.4486 12.2996 37.457 12.7621 37.457 23.9344V35.5547H34.8535H32.25V23.9416C32.25 13.2391 32.2584 12.3213 32.3928 12.1984C32.5188 12.0756 32.7035 12.0684 34.8367 12.0684C36.8691 12.0684 37.1715 12.0828 37.3059 12.1912ZM23.9943 22.6336L24.1875 22.7854V29.1736V35.5547H21.542H18.8965V29.1953V22.8287L19.1064 22.6553L19.308 22.4746H21.5504C23.7424 22.4746 23.8012 22.4818 23.9943 22.6336ZM10.6492 28.6605L10.834 28.7689V32.1654V35.5547H8.23047H5.62695V32.1943C5.62695 28.9279 5.63535 28.8268 5.79492 28.6895C5.95449 28.5521 6.07207 28.5449 8.21367 28.5449C10.1117 28.5449 10.4897 28.5594 10.6492 28.6605Z" fill="url(#paint1_linear_23_4)"/>
<path d="M37.3059 12.1912C37.4486 12.2996 37.457 12.7621 37.457 23.9344V35.5547H34.8535H32.25V23.9416C32.25 13.2391 32.2584 12.3213 32.3928 12.1984C32.5188 12.0756 32.7035 12.0684 34.8367 12.0684C36.8691 12.0684 37.1715 12.0828 37.3059 12.1912Z" fill="url(#paint2_linear_23_4)"/>
<path d="M23.9943 22.6336L24.1875 22.7854V29.1736V35.5547H21.542H18.8965V29.1953V22.8287L19.1064 22.6553L19.308 22.4746H21.5504C23.7424 22.4746 23.8012 22.4818 23.9943 22.6336Z" fill="url(#paint3_linear_23_4)"/>
<path d="M10.6492 28.6605L10.834 28.7689V32.1654V35.5547H8.23047H5.62695V32.1943C5.62695 28.9279 5.63535 28.8268 5.79492 28.6895C5.95449 28.5521 6.07207 28.5449 8.21367 28.5449C10.1117 28.5449 10.4897 28.5594 10.6492 28.6605Z" fill="url(#paint4_linear_23_4)"/>
<defs>
<linearGradient id="paint0_linear_23_4" x1="3.58334" y1="11.764" x2="38.5208" y2="11.764" gradientUnits="userSpaceOnUse">
<stop stop-color="#C74A54"/>
<stop offset="1" stop-color="#FF3F4E"/>
</linearGradient>
<linearGradient id="paint1_linear_23_4" x1="1.17578" y1="23.6086" x2="41.8242" y2="23.6086" gradientUnits="userSpaceOnUse">
<stop stop-color="#C74A54"/>
<stop offset="1" stop-color="#FF3F4E"/>
</linearGradient>
<linearGradient id="paint2_linear_23_4" x1="1.17578" y1="23.6086" x2="41.8242" y2="23.6086" gradientUnits="userSpaceOnUse">
<stop stop-color="#C74A54"/>
<stop offset="1" stop-color="#FF3F4E"/>
</linearGradient>
<linearGradient id="paint3_linear_23_4" x1="1.17578" y1="23.6086" x2="41.8242" y2="23.6086" gradientUnits="userSpaceOnUse">
<stop stop-color="#C74A54"/>
<stop offset="1" stop-color="#FF3F4E"/>
</linearGradient>
<linearGradient id="paint4_linear_23_4" x1="1.17578" y1="23.6086" x2="41.8242" y2="23.6086" gradientUnits="userSpaceOnUse">
<stop stop-color="#C74A54"/>
<stop offset="1" stop-color="#FF3F4E"/>
</linearGradient>
</defs>
</svg>
