<svg width="25" height="25" viewBox="0 0 25 25" fill="none" xmlns="http://www.w3.org/2000/svg">
<path d="M1.8595 24.4227C1.61507 24.4261 1.37262 24.3777 1.14711 24.2807C0.921601 24.1837 0.717764 24.0401 0.548548 23.8588C0.373164 23.684 0.234143 23.4743 0.139863 23.2427C0.0455834 23.011 -0.00199151 22.7621 6.38666e-05 22.5109V6.65972C-0.00199151 6.40861 0.0455834 6.15966 0.139863 5.928C0.234143 5.69634 0.373164 5.4867 0.548548 5.31192C0.717764 5.13054 0.921601 4.98696 1.14711 4.88996C1.37262 4.79295 1.61507 4.74457 1.8595 4.74802H7.80498V1.9285C7.81615 1.42063 8.01746 0.936746 8.36685 0.577532C8.71624 0.218318 9.18676 0.0114818 9.68075 0H15.3083C15.8023 0.0114818 16.2728 0.218318 16.6222 0.577532C16.9716 0.936746 17.1729 1.42063 17.1841 1.9285V4.74802H23.1242C23.6182 4.7595 24.0887 4.96647 24.4381 5.32569C24.7875 5.6849 24.9888 6.16878 25 6.67666V22.5279C24.9888 23.0358 24.7875 23.5196 24.4381 23.8789C24.0887 24.2381 23.6182 24.445 23.1242 24.4565L1.8595 24.4227ZM9.68075 4.68606H15.3083V1.86655H9.68075V4.68606Z" fill="white"/>
</svg>
