<svg width="25" height="29" viewBox="0 0 25 29" fill="none" xmlns="http://www.w3.org/2000/svg">
<path d="M7.78601e-06 27.6174V10.1367C-0.000702302 9.92043 0.0471672 9.70696 0.139816 9.51356C0.232464 9.32015 0.367297 9.15221 0.533457 9.02306L11.7833 0.276966C12.0131 0.0971669 12.2926 0 12.5798 0C12.867 0 13.1465 0.0971669 13.3764 0.276966L24.4738 9.01548C24.6373 9.14585 24.7698 9.31378 24.8611 9.50625C24.9523 9.69872 24.9999 9.91053 25 10.1253V27.6098C25.0005 27.7922 24.9665 27.9729 24.9 28.1415C24.8334 28.3102 24.7357 28.4634 24.6123 28.5926C24.4889 28.7217 24.3423 28.8242 24.1809 28.8941C24.0195 28.964 23.8465 29 23.6718 29H17.1832C17.0084 29 16.8355 28.964 16.6741 28.8941C16.5127 28.8242 16.3661 28.7217 16.2427 28.5926C16.1193 28.4634 16.0216 28.3102 15.955 28.1415C15.8885 27.9729 15.8545 27.7922 15.855 27.6098V18.7691C15.855 18.5867 15.8205 18.4061 15.7535 18.2376C15.6866 18.0692 15.5884 17.9163 15.4647 17.7875C15.341 17.6587 15.1941 17.5567 15.0325 17.4872C14.871 17.4178 14.6979 17.3822 14.5232 17.3827H10.4297C10.255 17.3822 10.0818 17.4178 9.92025 17.4872C9.75868 17.5567 9.61187 17.6587 9.48815 17.7875C9.36443 17.9163 9.26621 18.0692 9.19923 18.2376C9.13226 18.4061 9.09779 18.5867 9.09779 18.7691V27.6098C9.09827 27.7922 9.0643 27.9729 8.99776 28.1415C8.93123 28.3102 8.83347 28.4634 8.71008 28.5926C8.5867 28.7217 8.44008 28.8242 8.2787 28.8941C8.11732 28.964 7.94434 29 7.76962 29H1.32455C0.973544 28.999 0.637152 28.853 0.388953 28.5939C0.140754 28.3349 0.000965513 27.9838 7.78601e-06 27.6174V27.6174Z" fill="white"/>
</svg>
