<svg width="46" height="46" viewBox="0 0 46 46" fill="none" xmlns="http://www.w3.org/2000/svg">
<path d="M26.5938 2.36294C26.2793 2.52466 26.1445 2.83911 26.1445 3.43208C26.1445 3.93521 26.1445 3.93521 25.8121 4.052C25.6234 4.11489 25.2102 4.27661 24.8957 4.42036L24.3207 4.67192L23.8895 4.26763C23.5391 3.93521 23.3953 3.86333 23.1258 3.86333C22.8203 3.86333 22.6945 3.95317 21.6344 5.00434C20.9875 5.64223 20.4125 6.27114 20.3406 6.40591C20.143 6.77427 20.2508 7.0977 20.709 7.54692L21.1043 7.93325L20.8707 8.39145C20.7449 8.64302 20.5652 9.04731 20.4844 9.29888L20.3316 9.7481L19.6848 9.79302C18.6875 9.86489 18.6875 9.85591 18.6875 12.0481C18.6875 13.7731 18.6965 13.836 18.8941 14.0696C19.0738 14.2762 19.1906 14.3122 19.7387 14.3481L20.3766 14.402L20.4844 14.7704C20.5473 14.968 20.709 15.3633 20.8438 15.6418L21.0953 16.154L20.7539 16.4864C20.2867 16.9356 20.1609 17.259 20.2957 17.6004C20.3586 17.7352 20.9426 18.3821 21.5984 19.0379C22.6945 20.125 22.8203 20.2149 23.1258 20.2149C23.3953 20.2149 23.5391 20.143 23.8984 19.8016L24.3297 19.3973L24.7699 19.6129C25.0035 19.7297 25.4168 19.9004 25.6773 19.9813L26.1445 20.143V20.709C26.1445 21.1852 26.1805 21.329 26.3602 21.5356L26.5758 21.7872L28.3816 21.8141L30.1875 21.8411L30.457 21.5715C30.6996 21.329 30.7266 21.2481 30.7266 20.727V20.143L31.1937 19.9903C31.4543 19.9094 31.8586 19.7387 32.1012 19.6219L32.5414 19.3973L32.9727 19.8016C33.332 20.143 33.4758 20.2149 33.7453 20.2149C34.0598 20.2149 34.1766 20.125 35.3445 18.9661C36.5484 17.7622 36.6113 17.6903 36.6113 17.3489C36.6113 17.0434 36.5484 16.9266 36.216 16.5852L35.8297 16.1899L36.1531 15.3813C36.3328 14.9411 36.4766 14.5368 36.4766 14.4918C36.4766 14.4379 36.7641 14.375 37.1234 14.3571C37.6805 14.3122 37.7973 14.2762 37.977 14.0696C38.1746 13.836 38.1836 13.7731 38.1836 12.0301C38.1836 10.2422 38.1836 10.2333 37.959 10.0176C37.7703 9.81997 37.6625 9.79302 37.1504 9.79302C36.6652 9.79302 36.5484 9.76606 36.5035 9.6313C36.4586 9.49653 36.225 8.92153 35.9105 8.15786C35.8207 7.92427 35.8387 7.87934 36.1801 7.52895C36.6293 7.07075 36.7191 6.76528 36.5395 6.41489C36.4586 6.27114 35.8836 5.64223 35.2367 5.00434C34.1766 3.95317 34.0508 3.86333 33.7453 3.86333C33.4758 3.86333 33.332 3.93521 32.9816 4.26763L32.5504 4.67192L31.9754 4.41138C31.6609 4.27661 31.2477 4.10591 31.068 4.052L30.7266 3.93521V3.36919C30.7266 2.89302 30.6906 2.74927 30.5109 2.54263L30.2953 2.29107L28.5523 2.26411C27.2766 2.24614 26.7555 2.2731 26.5938 2.36294ZM29.1363 4.36646C29.1992 4.99536 29.4238 5.24692 30.0348 5.39966C30.6457 5.54341 31.4363 5.87583 31.9754 6.19927C32.5773 6.57661 32.8828 6.55864 33.359 6.10942L33.7453 5.75903L34.2305 6.24419L34.7156 6.73833L34.4371 7.02583C33.907 7.57388 33.898 7.74458 34.3473 8.61606C34.7605 9.42466 34.9672 9.93677 35.1289 10.5747C35.2727 11.1497 35.5063 11.3204 36.1352 11.3204H36.6562V12.0391V12.7579H36.1711C35.4883 12.7579 35.2727 12.9645 35.0301 13.827C34.9312 14.1954 34.6527 14.8872 34.4012 15.3633C33.898 16.3426 33.898 16.4954 34.4371 17.0524L34.7156 17.3399L34.2305 17.834L33.7453 18.3282L33.4219 18.0137C32.9187 17.5196 32.7031 17.5286 31.6969 18.0407C31.2207 18.2833 30.5559 18.5528 30.2234 18.6426C29.4059 18.8583 29.2082 19.0559 29.1363 19.7028L29.0824 20.2149H28.4355H27.7797L27.7437 19.7118C27.6898 19.0739 27.4742 18.8583 26.6836 18.6516C26.3602 18.5708 25.6863 18.2922 25.1922 18.0407C24.15 17.5196 24.0062 17.5196 23.4582 18.0137L23.1168 18.3192L22.6406 17.834L22.1555 17.3399L22.434 17.0524C22.973 16.4954 22.973 16.3696 22.425 15.2465C22.1555 14.6895 21.868 13.9977 21.7961 13.7012C21.6164 12.9735 21.3559 12.7579 20.7 12.7579H20.2148V12.0391V11.3204H20.7359C21.3828 11.3204 21.5805 11.1586 21.7781 10.4758C21.859 10.2063 21.9219 9.95474 21.9219 9.9188C21.9219 9.87388 22.1465 9.38872 22.416 8.84067C22.982 7.71763 22.982 7.59185 22.434 7.02583L22.1555 6.73833L22.6406 6.24419L23.1258 5.75903L23.5121 6.10942C24.0062 6.56763 24.2758 6.57661 25.0035 6.14536C25.309 5.96567 26.0008 5.67817 26.5398 5.49849C27.4383 5.202 27.5191 5.15708 27.6359 4.88755C27.7078 4.72583 27.7617 4.42036 27.7617 4.22271V3.86333H28.4266H29.0824L29.1363 4.36646Z" fill="url(#paint0_linear_23_8)"/>
<path d="M29.1363 4.36646C29.1992 4.99536 29.4238 5.24692 30.0348 5.39966C30.6457 5.54341 31.4363 5.87583 31.9754 6.19927C32.5773 6.57661 32.8828 6.55864 33.359 6.10942L33.7453 5.75903L34.2305 6.24419L34.7156 6.73833L34.4371 7.02583C33.907 7.57388 33.898 7.74458 34.3473 8.61606C34.7605 9.42466 34.9672 9.93677 35.1289 10.5747C35.2727 11.1497 35.5063 11.3204 36.1352 11.3204H36.6562V12.0391V12.7579H36.1711C35.4883 12.7579 35.2727 12.9645 35.0301 13.827C34.9312 14.1954 34.6527 14.8872 34.4012 15.3633C33.898 16.3426 33.898 16.4954 34.4371 17.0524L34.7156 17.3399L34.2305 17.834L33.7453 18.3282L33.4219 18.0137C32.9187 17.5196 32.7031 17.5286 31.6969 18.0407C31.2207 18.2833 30.5559 18.5528 30.2234 18.6426C29.4059 18.8583 29.2082 19.0559 29.1363 19.7028L29.0824 20.2149H28.4355H27.7797L27.7437 19.7118C27.6898 19.0739 27.4742 18.8583 26.6836 18.6516C26.3602 18.5708 25.6863 18.2922 25.1922 18.0407C24.15 17.5196 24.0062 17.5196 23.4582 18.0137L23.1168 18.3192L22.6406 17.834L22.1555 17.3399L22.434 17.0524C22.973 16.4954 22.973 16.3696 22.425 15.2465C22.1555 14.6895 21.868 13.9977 21.7961 13.7012C21.6164 12.9735 21.3559 12.7579 20.7 12.7579H20.2148V12.0391V11.3204H20.7359C21.3828 11.3204 21.5805 11.1586 21.7781 10.4758C21.859 10.2063 21.9219 9.95474 21.9219 9.9188C21.9219 9.87388 22.1465 9.38872 22.416 8.84067C22.982 7.71763 22.982 7.59185 22.434 7.02583L22.1555 6.73833L22.6406 6.24419L23.1258 5.75903L23.5121 6.10942C24.0062 6.56763 24.2758 6.57661 25.0035 6.14536C25.309 5.96567 26.0008 5.67817 26.5398 5.49849C27.4383 5.202 27.5191 5.15708 27.6359 4.88755C27.7078 4.72583 27.7617 4.42036 27.7617 4.22271V3.86333H28.4266H29.0824L29.1363 4.36646Z" fill="url(#paint1_linear_23_8)"/>
<path d="M27.4113 6.69331C26.0816 6.93588 24.734 7.81635 23.9613 8.95737C22.7844 10.6644 22.6855 12.9105 23.6918 14.7343C24.1679 15.5878 25.0574 16.4324 25.9738 16.8816C27.6629 17.7171 29.2082 17.7081 30.8972 16.8816C32.2988 16.1898 33.359 14.8601 33.7453 13.2968C33.9429 12.4972 33.8801 11.0417 33.6015 10.2511C33.341 9.5144 32.6402 8.47221 32.0472 7.95112C31.3914 7.36713 30.3043 6.84604 29.4238 6.69331C28.5523 6.54057 28.2738 6.54057 27.4113 6.69331ZM29.5496 8.34643C30.9781 8.78666 31.9844 9.93667 32.2629 11.446C32.5594 13.0542 31.6609 14.7523 30.1156 15.516C29.4508 15.8484 29.4058 15.8574 28.4445 15.8574C27.5101 15.8574 27.4113 15.8394 26.8363 15.5699C26.0816 15.2105 25.282 14.4378 24.9496 13.7371C24.4465 12.6589 24.4375 11.5179 24.9316 10.4398C25.7402 8.67885 27.7258 7.78042 29.5496 8.34643Z" fill="white"/>
<path d="M29.5496 8.34643C30.9781 8.78666 31.9844 9.93667 32.2629 11.446C32.5594 13.0542 31.6609 14.7523 30.1156 15.516C29.4508 15.8484 29.4058 15.8574 28.4445 15.8574C27.5101 15.8574 27.4113 15.8394 26.8363 15.5699C26.0816 15.2105 25.282 14.4378 24.9496 13.7371C24.4465 12.6589 24.4375 11.5179 24.9316 10.4398C25.7402 8.67885 27.7258 7.78042 29.5496 8.34643Z" fill="white"/>
<path fill-rule="evenodd" clip-rule="evenodd" d="M9.53241 17.6004C9.5953 16.684 9.64921 16.5493 10.0086 16.3875C10.368 16.2348 13.9348 16.2079 14.366 16.3606C14.7523 16.4954 14.8512 16.72 14.9141 17.6004L14.959 18.3551L15.543 18.5438C15.8664 18.6606 16.3965 18.8762 16.7199 19.029C17.0523 19.1907 17.3488 19.3165 17.3937 19.3165C17.4297 19.3165 17.7082 19.0739 18.0226 18.7774C18.6066 18.2114 18.7953 18.1485 19.2086 18.3641C19.559 18.5438 22.1555 21.2032 22.2363 21.4547C22.3441 21.8051 22.2094 22.1016 21.6883 22.6407L21.2031 23.1528L21.5086 23.8176C21.6793 24.186 21.8949 24.7071 21.9848 24.9766L21.9955 25.0093C22.1084 25.3524 22.1649 25.524 22.2834 25.6098C22.4021 25.6957 22.583 25.6956 22.9448 25.6954L23 25.6954C23.3863 25.6954 23.7726 25.7223 23.8535 25.7493C24.2039 25.884 24.2578 26.2344 24.2578 28.3008V28.3526C24.2578 29.9136 24.2578 30.5206 23.9584 30.7746C23.7678 30.9363 23.456 30.955 22.9456 30.9856L22.9191 30.9872L22.1734 31.0411L22.0117 31.5532C21.9308 31.8317 21.7062 32.3887 21.5176 32.784L21.1762 33.5118L21.7242 34.0868C22.2902 34.6708 22.3711 34.8774 22.1824 35.2458C22.1285 35.3536 21.4547 36.0813 20.682 36.854C18.8941 38.6598 18.8133 38.6778 17.825 37.7165L17.3668 37.2672L16.8367 37.5368C16.5402 37.6805 15.9922 37.9141 15.6148 38.0489L14.9141 38.3004V38.9204C14.9141 39.6661 14.7433 40.1243 14.4199 40.25C14.1144 40.3668 10.323 40.3668 10.0176 40.25C9.69413 40.1243 9.52343 39.6661 9.52343 38.9204V38.3004L8.82264 38.0489C8.4453 37.9141 7.89725 37.6805 7.60077 37.5368L7.07069 37.2672L6.61249 37.7165C5.61522 38.6868 5.55233 38.6598 3.70155 36.809C1.86874 34.9762 1.86874 34.9672 2.6953 34.1047L3.26132 33.5118L2.90194 32.7301C2.70429 32.2899 2.47069 31.7239 2.38085 31.4633L2.22811 30.9961H1.57225C0.799598 30.9961 0.485145 30.8793 0.305457 30.5379C0.116786 30.1696 0.12577 26.4231 0.314442 26.0637C0.485145 25.7313 0.592957 25.6954 1.43749 25.6954L1.49263 25.6954C1.85451 25.6956 2.03538 25.6957 2.15404 25.6098C2.27261 25.524 2.32908 25.3524 2.44196 25.0093L2.45272 24.9766C2.54257 24.7071 2.75819 24.186 2.92889 23.8176L3.23436 23.1528L2.74921 22.6497C2.21913 22.0926 2.11132 21.85 2.20116 21.4907C2.26405 21.2211 4.83358 18.5707 5.22889 18.3641C5.64218 18.1485 5.83085 18.2114 6.41483 18.7774C6.72928 19.0739 7.0078 19.3165 7.05272 19.3165C7.08866 19.3165 7.36718 19.1907 7.67264 19.0469C7.97811 18.8942 8.50819 18.6786 8.8496 18.5618L9.4785 18.3551L9.53241 17.6004ZM7.54685 23.6288C8.54412 22.6405 9.67615 22.0296 11.0058 21.778C11.8324 21.6163 13.1531 21.6882 14.0156 21.9218C16.2617 22.5507 18.0496 24.3925 18.6605 26.6835C18.9031 27.5819 18.8762 29.2261 18.6066 30.0976C18.2383 31.2925 17.7441 32.128 16.8906 32.9815C16.2168 33.6554 15.9922 33.8261 15.1746 34.2124C13.1441 35.2007 11.2933 35.2007 9.26287 34.2124C8.44529 33.8261 8.22068 33.6554 7.54685 32.9815C6.35193 31.7866 5.70506 30.3581 5.59725 28.705C5.48045 26.8003 6.16326 25.0214 7.54685 23.6288Z" fill="url(#paint2_linear_23_8)"/>
<path d="M34.1855 24.2758C33.8621 24.4465 33.7812 24.6352 33.7812 25.2191C33.7812 25.7223 33.7543 25.7941 33.5836 25.875C33.4668 25.9199 33.0535 26.0906 32.6492 26.2613L31.9305 26.5668L31.4992 26.1715C31.1578 25.866 31.0051 25.7852 30.7355 25.7852C30.4391 25.7852 30.3133 25.884 29.1273 27.0699C27.9773 28.2199 27.8516 28.3816 27.8516 28.6602C27.8516 28.9027 27.9324 29.0555 28.2648 29.3879L28.6781 29.8102L28.4176 30.3852C28.2648 30.6906 28.0941 31.1039 28.0402 31.2836C27.9324 31.607 27.9055 31.625 27.5551 31.625C27.3484 31.625 27.025 31.6699 26.8453 31.7238C26.2883 31.8766 26.2344 32.0742 26.2344 33.9969C26.2344 35.65 26.2344 35.659 26.468 35.9285C26.6836 36.1891 26.7375 36.207 27.3125 36.207C27.9055 36.207 27.9234 36.216 27.9863 36.4496C28.0133 36.5844 28.184 36.9977 28.3547 37.357L28.6602 38.0219L28.2559 38.4711C27.9324 38.8305 27.8516 38.9922 27.8516 39.2438C27.8516 39.5402 27.9594 39.675 29.1363 40.852C30.6637 42.3793 30.7176 42.3973 31.4543 41.7234L31.8945 41.3012L32.5055 41.5797C32.8379 41.7234 33.2063 41.8762 33.332 41.9121C33.7184 42.0289 33.7812 42.1277 33.7812 42.7117C33.7812 43.1969 33.8082 43.3047 34.0148 43.4934C34.2395 43.709 34.2664 43.709 36.0273 43.709C37.7883 43.709 37.8152 43.709 38.0398 43.4934C38.2465 43.3047 38.2734 43.1969 38.2734 42.7117C38.2734 42.1277 38.3363 42.0289 38.7227 41.9121C38.8484 41.8762 39.2168 41.7234 39.5492 41.5797L40.1602 41.3012L40.6004 41.7234C41.3371 42.3973 41.391 42.3793 42.9184 40.852C44.0953 39.675 44.2031 39.5402 44.2031 39.2438C44.2031 38.9922 44.1223 38.8305 43.7988 38.4711L43.3855 38.0129L43.6102 37.5816C43.727 37.3391 43.8977 36.9348 43.9785 36.6742L44.1313 36.207H44.7422C45.3172 36.207 45.3711 36.1891 45.5867 35.9285C45.8203 35.659 45.8203 35.65 45.8203 33.9969C45.8203 32.0742 45.7664 31.8766 45.2094 31.7238C45.0297 31.6699 44.7062 31.625 44.5086 31.625C44.1492 31.625 44.1313 31.616 43.9785 31.1938C43.8887 30.9602 43.718 30.5559 43.5922 30.2953L43.3766 29.8102L43.7898 29.3879C44.1223 29.0555 44.2031 28.9027 44.2031 28.6602C44.2031 28.3727 44.0773 28.2199 42.9184 27.0609C41.7414 25.884 41.6156 25.7852 41.3102 25.7852C41.0496 25.7852 40.8969 25.866 40.5555 26.1715L40.1242 26.5668L39.4055 26.2613C39.0012 26.0906 38.5879 25.9199 38.4801 25.875C38.3004 25.8031 38.2734 25.7223 38.2734 25.2551C38.2734 24.2129 38.1836 24.168 36.0094 24.168C34.9941 24.168 34.2934 24.2129 34.1855 24.2758ZM36.7461 26.2613C36.7461 26.9441 36.8809 27.0789 37.8062 27.3574C38.2375 27.4922 38.9203 27.7707 39.3246 27.9953C39.7379 28.2109 40.1691 28.3906 40.2949 28.3906C40.4387 28.3906 40.6723 28.2469 40.9328 28.0133L41.3371 27.6359L41.8402 28.148L42.3523 28.6512L41.975 29.0555C41.7414 29.316 41.5977 29.5496 41.5977 29.6934C41.5977 29.8191 41.7773 30.2504 41.993 30.6637C42.2176 31.068 42.4961 31.7508 42.6309 32.182C42.9094 33.1074 43.0441 33.2422 43.727 33.2422H44.2031V33.9609V34.6797H43.727C43.0441 34.6797 42.9094 34.8145 42.6309 35.7398C42.4961 36.1711 42.2176 36.8539 41.993 37.2582C41.7773 37.6715 41.5977 38.1027 41.5977 38.2285C41.5977 38.3723 41.7324 38.6059 41.957 38.8395L42.3074 39.2258L41.7953 39.7379L41.2832 40.241L40.9059 39.8816C40.6723 39.666 40.4387 39.5312 40.2949 39.5312C40.1691 39.5312 39.7379 39.7109 39.3246 39.9266C38.9203 40.1512 38.2645 40.4117 37.8691 40.5195C36.9438 40.7621 36.7461 40.9688 36.7461 41.6516V42.1367H36.0273H35.3086V41.6516C35.3086 40.9867 35.093 40.7531 34.3203 40.5734C33.9969 40.4926 33.332 40.232 32.8379 39.9805C32.3438 39.7289 31.8496 39.5312 31.7328 39.5312C31.616 39.5312 31.3645 39.693 31.1488 39.8816L30.7715 40.241L30.2594 39.7379L29.7473 39.2258L30.0977 38.8395C30.3223 38.6059 30.457 38.3723 30.457 38.2285C30.457 38.1027 30.2773 37.6715 30.0617 37.2582C29.8371 36.8539 29.5586 36.1711 29.4238 35.7398C29.1453 34.8145 29.0105 34.6797 28.3277 34.6797H27.8516V33.9609V33.2422H28.3277C29.0105 33.2422 29.1453 33.1074 29.4238 32.182C29.5586 31.7508 29.8371 31.068 30.0617 30.6637C30.2773 30.2504 30.457 29.8191 30.457 29.6934C30.457 29.5496 30.3133 29.316 30.0797 29.0555L29.7023 28.6512L30.2145 28.148L30.7176 27.6359L31.1219 28.0133C31.3555 28.2289 31.616 28.3906 31.7418 28.3906C31.8586 28.3906 32.3707 28.175 32.8918 27.9145C33.4039 27.6539 34.0687 27.3844 34.3562 27.3215C35.093 27.1598 35.3086 26.9262 35.3086 26.2793V25.7852H36.0273H36.7461V26.2613Z" fill="url(#paint3_linear_23_8)"/>
<path d="M36.7461 26.2613C36.7461 26.9441 36.8809 27.0789 37.8062 27.3574C38.2375 27.4922 38.9203 27.7707 39.3246 27.9953C39.7379 28.2109 40.1691 28.3906 40.2949 28.3906C40.4387 28.3906 40.6723 28.2469 40.9328 28.0133L41.3371 27.6359L41.8402 28.148L42.3523 28.6512L41.975 29.0555C41.7414 29.316 41.5977 29.5496 41.5977 29.6934C41.5977 29.8191 41.7773 30.2504 41.993 30.6637C42.2176 31.068 42.4961 31.7508 42.6309 32.182C42.9094 33.1074 43.0441 33.2422 43.727 33.2422H44.2031V33.9609V34.6797H43.727C43.0441 34.6797 42.9094 34.8145 42.6309 35.7398C42.4961 36.1711 42.2176 36.8539 41.993 37.2582C41.7773 37.6715 41.5977 38.1027 41.5977 38.2285C41.5977 38.3723 41.7324 38.6059 41.957 38.8395L42.3074 39.2258L41.7953 39.7379L41.2832 40.241L40.9059 39.8816C40.6723 39.666 40.4387 39.5312 40.2949 39.5312C40.1691 39.5312 39.7379 39.7109 39.3246 39.9266C38.9203 40.1512 38.2645 40.4117 37.8691 40.5195C36.9438 40.7621 36.7461 40.9688 36.7461 41.6516V42.1367H36.0273H35.3086V41.6516C35.3086 40.9867 35.093 40.7531 34.3203 40.5734C33.9969 40.4926 33.332 40.232 32.8379 39.9805C32.3438 39.7289 31.8496 39.5312 31.7328 39.5312C31.616 39.5312 31.3645 39.693 31.1488 39.8816L30.7715 40.241L30.2594 39.7379L29.7473 39.2258L30.0977 38.8395C30.3223 38.6059 30.457 38.3723 30.457 38.2285C30.457 38.1027 30.2773 37.6715 30.0617 37.2582C29.8371 36.8539 29.5586 36.1711 29.4238 35.7398C29.1453 34.8145 29.0105 34.6797 28.3277 34.6797H27.8516V33.9609V33.2422H28.3277C29.0105 33.2422 29.1453 33.1074 29.4238 32.182C29.5586 31.7508 29.8371 31.068 30.0617 30.6637C30.2773 30.2504 30.457 29.8191 30.457 29.6934C30.457 29.5496 30.3133 29.316 30.0797 29.0555L29.7023 28.6512L30.2145 28.148L30.7176 27.6359L31.1219 28.0133C31.3555 28.2289 31.616 28.3906 31.7418 28.3906C31.8586 28.3906 32.3707 28.175 32.8918 27.9145C33.4039 27.6539 34.0687 27.3844 34.3562 27.3215C35.093 27.1598 35.3086 26.9262 35.3086 26.2793V25.7852H36.0273H36.7461V26.2613Z" fill="url(#paint4_linear_23_8)"/>
<path d="M34.8594 28.6151C34.1496 28.7769 33.1523 29.253 32.6133 29.7022C30.0258 31.8495 29.891 35.6769 32.3347 37.9319C32.9906 38.5429 33.4758 38.8304 34.3742 39.1358C34.9672 39.3335 35.2457 39.3784 36.0273 39.3784C36.8449 39.3784 37.0785 39.3425 37.7344 39.1089C39.9984 38.3272 41.4449 36.3327 41.4539 34.0058C41.4629 32.5054 40.9867 31.3104 39.9805 30.2503C39.2797 29.5136 38.6508 29.1003 37.7433 28.7858C36.9258 28.4983 35.6859 28.4265 34.8594 28.6151ZM37.2222 30.2772C38.8844 30.7894 39.9715 32.3796 39.8726 34.1854C39.8008 35.578 38.9742 36.7909 37.6535 37.4468C37.0066 37.7702 36.9437 37.7792 36.0273 37.7792C35.1109 37.7792 35.048 37.7702 34.4012 37.4468C31.634 36.0812 31.3824 32.3706 33.9519 30.6815C34.8144 30.1065 36.1441 29.9448 37.2222 30.2772Z" fill="white"/>
<path d="M37.2222 30.2772C38.8844 30.7894 39.9715 32.3796 39.8726 34.1854C39.8008 35.578 38.9742 36.7909 37.6535 37.4468C37.0066 37.7702 36.9437 37.7792 36.0273 37.7792C35.1109 37.7792 35.048 37.7702 34.4012 37.4468C31.634 36.0812 31.3824 32.3706 33.9519 30.6815C34.8144 30.1065 36.1441 29.9448 37.2222 30.2772Z" fill="white"/>
<defs>
<linearGradient id="paint0_linear_23_8" x1="18.6875" y1="11.8993" x2="38.1836" y2="11.8993" gradientUnits="userSpaceOnUse">
<stop stop-color="#A34EDF"/>
<stop offset="1" stop-color="#EE87FF"/>
</linearGradient>
<linearGradient id="paint1_linear_23_8" x1="18.6875" y1="11.8993" x2="38.1836" y2="11.8993" gradientUnits="userSpaceOnUse">
<stop stop-color="#A34EDF"/>
<stop offset="1" stop-color="#EE87FF"/>
</linearGradient>
<linearGradient id="paint2_linear_23_8" x1="0.168366" y1="28.1129" x2="24.2578" y2="28.1129" gradientUnits="userSpaceOnUse">
<stop stop-color="#A34EDF"/>
<stop offset="1" stop-color="#EE87FF"/>
</linearGradient>
<linearGradient id="paint3_linear_23_8" x1="26.2344" y1="33.7882" x2="45.8203" y2="33.7882" gradientUnits="userSpaceOnUse">
<stop stop-color="#A34EDF"/>
<stop offset="1" stop-color="#EE87FF"/>
</linearGradient>
<linearGradient id="paint4_linear_23_8" x1="26.2344" y1="33.7882" x2="45.8203" y2="33.7882" gradientUnits="userSpaceOnUse">
<stop stop-color="#A34EDF"/>
<stop offset="1" stop-color="#EE87FF"/>
</linearGradient>
</defs>
</svg>
