<svg width="20" height="24" viewBox="0 0 20 24" fill="none" xmlns="http://www.w3.org/2000/svg">
<path d="M9.10052 24C8.82728 24 8.60841 23.9142 8.44392 23.7426C8.2794 23.5712 8.19715 23.346 8.19715 23.067V21.9784H2.43839C1.76308 21.9784 1.18785 21.741 0.712711 21.2663C0.23757 20.7916 0 20.2168 0 19.5421V4.45788C0 3.77602 0.23757 3.19519 0.712711 2.7154C1.18785 2.23559 1.76308 1.99568 2.43839 1.99568H8.19715V0.933045C8.19715 0.653996 8.28096 0.428726 8.44859 0.257236C8.61621 0.0857452 8.83671 0 9.11006 0C9.38342 0 9.60657 0.0857452 9.77951 0.257236C9.95244 0.428726 10.0389 0.651879 10.0389 0.926696V23.0732C10.0389 23.3481 9.95266 23.5712 9.78016 23.7426C9.60764 23.9142 9.38109 24 9.10052 24ZM2.41245 18.4536H8.19715V11.8445L2.41245 18.4536ZM11.8807 21.9784V11.9482L17.5357 18.4017V4.45788H11.8807V1.99568H17.5357C18.2181 1.99568 18.7995 2.23559 19.2797 2.7154C19.7599 3.19519 20 3.77602 20 4.45788V19.5421C20 20.2168 19.7599 20.7916 19.2797 21.2663C18.7995 21.741 18.2181 21.9784 17.5357 21.9784H11.8807Z" fill="#8BF8FF"/>
</svg>
