<svg width="19" height="20" viewBox="0 0 19 20" fill="none" xmlns="http://www.w3.org/2000/svg">
<path d="M2.31647 20C1.67575 20 1.12949 19.7622 0.677691 19.2866C0.225897 18.8111 0 18.2361 0 17.5616V2.46433C0 1.78988 0.225897 1.21055 0.677691 0.726329C1.12949 0.24211 1.67575 0 2.31647 0H13.3813L19 5.9144V17.5616C19 18.2361 18.77 18.8111 18.31 19.2866C17.85 19.7622 17.2996 20 16.6589 20H2.31647ZM16.6589 7.21141L12.1492 2.46433V5.99222C12.1492 6.33809 12.2601 6.62776 12.4818 6.86122C12.7036 7.09468 12.9788 7.21141 13.3074 7.21141H16.6589ZM5.27367 6.51102C5.52668 6.51102 5.73779 6.42196 5.907 6.24384C6.07622 6.06572 6.16083 5.84349 6.16083 5.57717C6.16083 5.31085 6.07622 5.08863 5.907 4.91051C5.73779 4.73238 5.52668 4.64332 5.27367 4.64332C5.02067 4.64332 4.80955 4.73238 4.64034 4.91051C4.47112 5.08863 4.38651 5.31085 4.38651 5.57717C4.38651 5.84349 4.47112 6.06572 4.64034 6.24384C4.80955 6.42196 5.02067 6.51102 5.27367 6.51102ZM5.27367 10.9468C5.52668 10.9468 5.73779 10.8578 5.907 10.6796C6.07622 10.5015 6.16083 10.2793 6.16083 10.013C6.16083 9.74665 6.07622 9.52443 5.907 9.3463C5.73779 9.16818 5.52668 9.07912 5.27367 9.07912C5.02067 9.07912 4.80955 9.16818 4.64034 9.3463C4.47112 9.52443 4.38651 9.74665 4.38651 10.013C4.38651 10.2793 4.47112 10.5015 4.64034 10.6796C4.80955 10.8578 5.02067 10.9468 5.27367 10.9468ZM5.27367 15.3826C5.52668 15.3826 5.73779 15.2936 5.907 15.1154C6.07622 14.9373 6.16083 14.7151 6.16083 14.4488C6.16083 14.1824 6.07622 13.9602 5.907 13.7821C5.73779 13.604 5.52668 13.5149 5.27367 13.5149C5.02067 13.5149 4.80955 13.604 4.64034 13.7821C4.47112 13.9602 4.38651 14.1824 4.38651 14.4488C4.38651 14.7151 4.47112 14.9373 4.64034 15.1154C4.80955 15.2936 5.02067 15.3826 5.27367 15.3826Z" fill="#8BF8FF"/>
</svg>
