<svg width="22" height="21" viewBox="0 0 22 21" fill="none" xmlns="http://www.w3.org/2000/svg">
<path d="M9.04818 13.5208H16.416C16.64 13.5208 16.8253 13.4451 16.9718 13.2937C17.1183 13.1422 17.1915 12.9507 17.1915 12.7192C17.1915 12.4876 17.1183 12.2961 16.9718 12.1447C16.8253 11.9932 16.64 11.9175 16.416 11.9175H10.5993L9.04818 13.5208ZM5.40306 13.5208H6.33373C6.48884 13.5208 6.63964 13.4896 6.78613 13.4273C6.93263 13.3649 7.0662 13.2714 7.18684 13.1467L13.3396 6.86727C13.443 6.76039 13.4947 6.62679 13.4947 6.46646C13.4947 6.30613 13.443 6.17253 13.3396 6.06565L11.9177 4.7296C11.8316 4.64053 11.7239 4.596 11.5946 4.596C11.4653 4.596 11.3576 4.64053 11.2714 4.7296L5.14454 11.1693C5.02389 11.294 4.93341 11.4321 4.87309 11.5835C4.81277 11.7349 4.78261 11.8908 4.78261 12.0511V12.8795C4.78261 13.0576 4.84293 13.209 4.96357 13.3337C5.08421 13.4584 5.23071 13.5208 5.40306 13.5208ZM0 19.72V2.53849C0 1.86156 0.236976 1.26924 0.710928 0.761546C1.18488 0.253849 1.75793 0 2.43008 0H19.5441C20.199 0 20.772 0.253849 21.2632 0.761546C21.7544 1.26924 22 1.86156 22 2.53849V15.9524C22 16.6293 21.7544 17.2172 21.2632 17.716C20.772 18.2148 20.199 18.4641 19.5441 18.4641H4.13631L2.06816 20.6018C1.67176 21.0115 1.22797 21.1051 0.73678 20.8824C0.245593 20.6597 0 20.2723 0 19.72Z" fill="#8BF8FF"/>
</svg>
