<svg width="20" height="19" viewBox="0 0 20 19" fill="none" xmlns="http://www.w3.org/2000/svg">
<path d="M13.9157 11.1639C14.3468 11.1639 14.7305 10.9952 15.0668 10.6579C15.403 10.3205 15.5712 9.92695 15.5712 9.47716C15.5712 9.04468 15.403 8.66409 15.0668 8.33539C14.7305 8.0067 14.3468 7.84236 13.9157 7.84236C13.4846 7.84236 13.1009 8.0067 12.7646 8.33539C12.4284 8.66409 12.2602 9.04468 12.2602 9.47716C12.2602 9.92695 12.4284 10.3205 12.7646 10.6579C13.1009 10.9952 13.4846 11.1639 13.9157 11.1639ZM10.9793 14.3556C10.3971 14.3556 9.93044 14.1815 9.57938 13.8331C9.2283 13.4847 9.05276 13.027 9.05276 12.4598V6.57704C9.05276 5.99713 9.2283 5.5354 9.57938 5.19187C9.93044 4.84831 10.3971 4.67654 10.9793 4.67654H18.0735C18.6557 4.67654 19.1223 4.84831 19.4734 5.19187C19.8245 5.5354 20 5.99713 20 6.57704V12.4598C20 13.027 19.8245 13.4847 19.4734 13.8331C19.1223 14.1815 18.6557 14.3556 18.0735 14.3556H10.9793ZM1.7623 19C1.30361 19 0.895219 18.8247 0.537121 18.4741C0.17904 18.1235 0 17.7095 0 17.2321V1.77416C0 1.31231 0.17904 0.90116 0.537121 0.540706C0.895219 0.180236 1.30361 0 1.7623 0H17.171C17.6486 0 18.0627 0.180236 18.4134 0.540706C18.7641 0.90116 18.9395 1.31231 18.9395 1.77416V3.17542H10.9793C9.99559 3.17542 9.1792 3.50113 8.5301 4.15254C7.88099 4.80396 7.55643 5.61212 7.55643 6.57704V12.4613C7.55643 13.4309 7.88099 14.2391 8.5301 14.8862C9.1792 15.5332 9.99559 15.8568 10.9793 15.8568H18.9395V17.2321C18.9395 17.7093 18.7641 18.1233 18.4134 18.474C18.0627 18.8247 17.6486 19 17.171 19H1.7623Z" fill="#8BF8FF"/>
</svg>
