<svg width="21" height="22" viewBox="0 0 21 22" fill="none" xmlns="http://www.w3.org/2000/svg">
<path d="M12.2901 22H8.68489C8.38446 22 8.11741 21.9052 7.88374 21.7156C7.65007 21.526 7.51655 21.2761 7.48317 20.9659L7.10763 18.5358C6.89065 18.4669 6.64446 18.3506 6.36906 18.1868C6.09367 18.0231 5.86417 17.8637 5.68058 17.7086L3.52748 18.7685C3.24374 18.9064 2.95583 18.9236 2.66374 18.8202C2.37165 18.7168 2.1505 18.5186 2.00029 18.2256L0.172662 14.8649C0.0057554 14.5891 -0.0401439 14.3004 0.034964 13.9988C0.110072 13.6972 0.26446 13.4516 0.498129 13.262L2.50101 11.7626C2.48432 11.6592 2.4718 11.5343 2.46345 11.3878C2.45511 11.2413 2.45094 11.1163 2.45094 11.0129C2.45094 10.9095 2.45511 10.7846 2.46345 10.6381C2.4718 10.4916 2.48432 10.3666 2.50101 10.2632L0.498129 8.73796C0.26446 8.54837 0.110072 8.30278 0.034964 8.00118C-0.0401439 7.69957 0.0057554 7.41951 0.172662 7.16099L2.00029 3.80024C2.16719 3.54172 2.39669 3.35644 2.68878 3.24442C2.98086 3.13239 3.26043 3.14532 3.52748 3.2832L5.73065 4.31727C5.89755 4.1794 6.11453 4.0329 6.38158 3.87779C6.64863 3.72268 6.89065 3.61065 7.10763 3.54172L7.48317 1.03408C7.51655 0.723854 7.65007 0.473952 7.88374 0.284371C8.11741 0.0947904 8.38446 0 8.68489 0H12.2901C12.5905 0 12.8576 0.0947904 13.0912 0.284371C13.3249 0.473952 13.4584 0.723854 13.4918 1.03408L13.8673 3.51586C14.0843 3.60204 14.3305 3.71837 14.6059 3.86486C14.8813 4.01136 15.1108 4.16216 15.2944 4.31727L17.4475 3.2832C17.7145 3.14532 17.9983 3.12808 18.2987 3.23149C18.5991 3.3349 18.8245 3.52448 18.9747 3.80024L20.8273 7.13514C20.9942 7.41089 21.0401 7.70388 20.965 8.0141C20.8899 8.32432 20.7272 8.56561 20.4768 8.73796L18.4489 10.2115C18.4656 10.3322 18.4823 10.4657 18.499 10.6122C18.5157 10.7587 18.524 10.8923 18.524 11.0129C18.524 11.1336 18.5157 11.2628 18.499 11.4007C18.4823 11.5386 18.4656 11.6678 18.4489 11.7885L20.4768 13.262C20.7105 13.4516 20.8649 13.6972 20.94 13.9988C21.0151 14.3004 20.9776 14.5891 20.8273 14.8649L18.9496 18.2256C18.7994 18.5186 18.5824 18.7168 18.2987 18.8202C18.015 18.9236 17.7312 18.9064 17.4475 18.7685L15.2694 17.7086C15.0858 17.8637 14.8646 18.0231 14.6059 18.1868C14.3472 18.3506 14.101 18.4669 13.8673 18.5358L13.4918 20.9659C13.4584 21.2761 13.3249 21.526 13.0912 21.7156C12.8576 21.9052 12.5905 22 12.2901 22ZM10.4374 14.3737C11.3387 14.3737 12.1065 14.0462 12.7407 13.3913C13.375 12.7364 13.6921 11.9436 13.6921 11.0129C13.6921 10.0823 13.375 9.28946 12.7407 8.63455C12.1065 7.97963 11.3387 7.65217 10.4374 7.65217C9.53612 7.65217 8.76835 7.97963 8.1341 8.63455C7.49986 9.28946 7.18273 10.0823 7.18273 11.0129C7.18273 11.9436 7.49986 12.7364 8.1341 13.3913C8.76835 14.0462 9.53612 14.3737 10.4374 14.3737Z" fill="#8BF8FF"/>
</svg>
