<svg width="16" height="18" viewBox="0 0 16 18" fill="none" xmlns="http://www.w3.org/2000/svg">
<path d="M1.6714 18C1.21176 18 0.818282 17.8324 0.490969 17.4972C0.163656 17.162 0 16.7591 0 16.2884V6.56856C0 6.29828 0.0589759 6.04225 0.176928 5.80045C0.29488 5.55865 0.459543 5.35865 0.670915 5.20044L6.99068 0.34353C7.14591 0.231013 7.30843 0.145629 7.47824 0.0873773C7.64807 0.0291257 7.82278 0 8.00235 0C8.18193 0 8.35537 0.0291257 8.52266 0.0873773C8.68998 0.145629 8.85023 0.231013 9.00343 0.34353L15.3232 5.20044C15.5342 5.36007 15.6998 5.56056 15.8199 5.80191C15.94 6.04325 16 6.2988 16 6.56856V16.2884C16 16.7591 15.8358 17.162 15.5073 17.4972C15.1788 17.8324 14.784 18 14.3227 18H9.99486V10.7794H5.99925V18H1.6714Z" fill="#8BF8FF"/>
</svg>
